<?xml version="1.0" encoding="utf-8"?>
<!-- Generator: Adobe Illustrator 19.0.0, SVG Export Plug-In . SVG Version: 6.00 Build 0)  -->
<svg version="1.1" id="Layer_1" xmlns="http://www.w3.org/2000/svg" xmlns:xlink="http://www.w3.org/1999/xlink" x="0px" y="0px"
	 viewBox="0 0 100 100" style="enable-background:new 0 0 100 100;" xml:space="preserve">
<style type="text/css">
	.st0{fill:url(#XMLID_2_);}
	.st1{fill-rule:evenodd;clip-rule:evenodd;fill:#FFFFFF;}
	.st2{fill:url(#XMLID_3_);}
</style>
<g id="XMLID_273_">
	<linearGradient id="XMLID_2_" gradientUnits="userSpaceOnUse" x1="50" y1="2.9574" x2="50" y2="97.6475">
		<stop  offset="0" style="stop-color:#72C16E"/>
		<stop  offset="0.2688" style="stop-color:#68BF66"/>
		<stop  offset="0.7467" style="stop-color:#4BB753"/>
		<stop  offset="1" style="stop-color:#2FB44A"/>
	</linearGradient>
	<circle id="XMLID_86_" class="st0" cx="50" cy="50" r="49.2"/>
</g>
<g id="XMLID_268_">
	<path id="XMLID_270_" class="st1" d="M76.2,48.7c-0.3-13.8-11.7-24.9-25.8-24.9c-13.9,0-25.2,10.8-25.8,24.5c0,0.4,0,0.7,0,1.1
		c0,4.8,1.4,9.4,3.7,13.2l-4.6,13.7L38,71.7c3.7,2,7.9,3.2,12.5,3.2c14.2,0,25.8-11.5,25.8-25.6C76.3,49.1,76.3,48.9,76.2,48.7z
		 M50.5,70.8c-4.4,0-8.5-1.3-11.9-3.6l-8.3,2.7l2.7-8c-2.6-3.5-4.1-7.9-4.1-12.6c0-0.7,0-1.4,0.1-2.1C30,36.4,39.2,27.8,50.5,27.8
		c11.4,0,20.7,8.7,21.6,19.8c0,0.6,0.1,1.1,0.1,1.7C72.2,61.2,62.4,70.8,50.5,70.8z"/>
	<path id="XMLID_83_" class="st1" d="M62.3,54.5c-0.6-0.3-3.7-1.8-4.3-2c-0.6-0.2-1-0.3-1.4,0.3c-0.4,0.6-1.6,2-2,2.4
		c-0.4,0.4-0.7,0.5-1.4,0.2c-0.6-0.3-2.7-1-5.1-3.1c-1.9-1.7-3.1-3.7-3.5-4.3c-0.4-0.6,0-1,0.3-1.3c0.3-0.3,0.6-0.7,1-1.1
		c0.1-0.1,0.2-0.2,0.2-0.3c0.1-0.2,0.3-0.4,0.4-0.7c0.2-0.4,0.1-0.8,0-1.1c-0.2-0.3-1.4-3.4-2-4.7c-0.5-1.3-1-1-1.4-1
		c-0.4,0-0.8-0.1-1.2-0.1c-0.4,0-1.1,0.2-1.7,0.8c-0.6,0.6-2.2,2.1-2.2,5.2c0,0.7,0.1,1.4,0.3,2.1c0.6,2.2,2,4,2.3,4.3
		c0.3,0.4,4.4,7,10.8,9.5c6.4,2.5,6.4,1.7,7.6,1.6c1.2-0.1,3.7-1.5,4.3-3c0.5-1.5,0.5-2.7,0.4-3C63.3,55,62.9,54.8,62.3,54.5z"/>
</g>
<radialGradient id="XMLID_3_" cx="55.7344" cy="68.9648" r="69.1032" gradientTransform="matrix(0.9239 -0.3825 0.236 0.5702 -12.0402 50.9639)" gradientUnits="userSpaceOnUse">
	<stop  offset="0" style="stop-color:#000000"/>
	<stop  offset="1" style="stop-color:#FFFFFF;stop-opacity:0"/>
</radialGradient>
<path id="XMLID_65_" class="st2" d="M94.3,28.4c1,3.7,1.5,7.5,1.5,11.5c0,26.1-23.1,47.3-51.6,47.3c-15.4,0-29.2-6.2-38.6-15.9
	c8,16.5,24.8,27.9,44.4,27.9c27.2,0,49.2-22,49.2-49.2C99.2,42.2,97.5,34.9,94.3,28.4z"/>
</svg>
