<svg xmlns="http://www.w3.org/2000/svg" width="150" height="160" fill="none" viewBox="0 0 150 160"><g clip-path="url(#clip0_124_1303)"><path fill="#fff" d="M47.912 120H2.088C.935 120 0 120.954 0 122.13v35.74c0 1.176.935 2.13 2.088 2.13h45.824c1.153 0 2.088-.954 2.088-2.13v-35.74c0-1.176-.935-2.13-2.088-2.13Z"/><path stroke="#9DADBC" stroke-opacity=".36" d="M47.912 120.5H2.088c-.882 0-1.598.73-1.598 1.63v35.74c0 .9.716 1.63 1.598 1.63h45.824c.882 0 1.598-.73 1.598-1.63v-35.74c0-.9-.716-1.63-1.598-1.63Z"/><mask id="mask0_124_1303" width="42" height="12" x="4" y="134" maskUnits="userSpaceOnUse" style="mask-type:luminance"><path fill="#fff" d="M45.098 134H4.902v11.33h40.196V134Z"/></mask><g mask="url(#mask0_124_1303)"><path fill="#fff" d="M5.383 139.732c0-2.878 2.288-5.211 5.11-5.211 2.82 0 5.108 2.332 5.108 5.211 0 2.879-2.286 5.211-5.109 5.211-2.822 0-5.109-2.333-5.109-5.211Z"/><path fill="#231F20" d="M19.103 136.564c0-.511-.263-.477-.512-.483v-.146c.217.01.44.01.656.01.234 0 .551-.01.964-.01 1.441 0 2.226.981 2.226 1.987 0 .561-.323 1.975-2.293 1.975-.283 0-.546-.011-.807-.011s-.495.006-.746.011v-.147c.334-.034.496-.046.512-.431v-2.755Zm.545 2.663c0 .437.307.487.579.487 1.203 0 1.597-.925 1.597-1.77 0-1.061-.668-1.827-1.742-1.827-.228 0-.334.016-.434.022v3.088ZM22.631 139.749h.106c.155 0 .267 0 .267-.189v-1.537c0-.25-.083-.284-.29-.396v-.092c.263-.08.574-.187.596-.205a.196.196 0 0 1 .1-.027c.029 0 .04.034.04.079v2.179c0 .189.123.189.278.189h.095v.147c-.189 0-.384-.011-.584-.011-.2 0-.4.006-.607.011v-.148Zm.596-3.321c-.146 0-.273-.136-.273-.284 0-.147.134-.273.273-.273a.278.278 0 0 1 0 .557ZM24.351 138.057c0-.209-.061-.267-.323-.373v-.109c.239-.08.467-.155.735-.272.016 0 .033.011.033.056v.37c.317-.234.59-.426.964-.426.473 0 .64.351.64.795v1.463c0 .189.123.189.279.189h.1v.147c-.195 0-.39-.011-.59-.011-.199 0-.4.006-.6.011v-.147h.1c.156 0 .267 0 .267-.189v-1.469c0-.324-.195-.482-.512-.482-.178 0-.462.147-.646.273v1.679c0 .189.123.189.28.189h.1v.147c-.195 0-.39-.011-.59-.011-.2 0-.4.006-.6.011v-.147h.1c.155 0 .266 0 .266-.189v-1.504l-.003-.001ZM27.201 138.33c-.011.051-.011.136 0 .329.033.54.373.983.818.983.306 0 .546-.171.751-.381l.078.079c-.256.346-.573.641-1.029.641-.885 0-1.063-.875-1.063-1.237 0-1.112.734-1.441 1.123-1.441.452 0 .937.289.942.891 0 .035 0 .068-.005.102l-.051.034H27.2Zm.986-.183c.138 0 .155-.073.155-.142 0-.291-.173-.523-.484-.523-.34 0-.573.256-.64.664h.97v.001ZM28.948 139.749h.151c.156 0 .267 0 .267-.189v-1.594c0-.176-.205-.21-.29-.256v-.084c.407-.176.63-.323.68-.323.033 0 .05.016.05.073v.511h.011c.139-.221.373-.583.712-.583.14 0 .316.096.316.3 0 .153-.104.291-.261.291-.173 0-.173-.136-.367-.136a.473.473 0 0 0-.406.471v1.332c0 .189.111.189.267.189h.312v.147c-.307-.005-.54-.011-.779-.011-.238 0-.462.006-.663.011v-.149ZM31.091 139.108c.073.374.296.692.702.692.328 0 .45-.205.45-.403 0-.669-1.212-.455-1.212-1.368 0-.318.25-.726.863-.726.178 0 .416.05.634.164l.038.579h-.127c-.055-.358-.25-.563-.607-.563-.223 0-.434.131-.434.376 0 .664 1.291.46 1.291 1.351 0 .374-.294.772-.956.772-.224 0-.485-.079-.68-.193l-.06-.653.099-.028ZM37.714 136.961h-.14c-.105-.664-.567-.93-1.189-.93-.622 0-1.57.437-1.57 1.798 0 1.148.802 1.971 1.659 1.971.55 0 1.007-.385 1.12-.982l.127.034-.128.829c-.234.148-.864.301-1.23.301-1.303 0-2.125-.857-2.125-2.134 0-1.164 1.018-1.999 2.108-1.999.452 0 .885.148 1.313.301l.055.811ZM37.915 139.749h.106c.156 0 .267 0 .267-.189v-3.159c0-.37-.083-.381-.294-.444v-.092c.222-.073.456-.175.573-.244.06-.034.106-.063.122-.063.033 0 .044.034.044.081v3.922c0 .189.123.189.279.189h.095v.147c-.188 0-.383-.011-.585-.011-.202 0-.4.006-.607.011v-.148ZM41.489 139.584c0 .103.06.108.155.108.066 0 .15-.005.224-.005v.119c-.241.022-.697.142-.803.175l-.026-.017v-.459c-.334.278-.591.476-.986.476-.3 0-.611-.198-.611-.675v-1.454c0-.147-.023-.291-.334-.318v-.108c.2-.007.645-.04.718-.04.062 0 .062.04.062.164v1.465c0 .17 0 .659.483.659.19 0 .44-.148.673-.345V137.8c0-.113-.267-.175-.466-.232v-.102c.5-.035.813-.08.867-.08.045 0 .045.04.045.103v2.093l-.001.002ZM42.596 137.711c.223-.193.524-.407.83-.407.645 0 1.035.573 1.035 1.191 0 .744-.534 1.488-1.331 1.488-.413 0-.629-.136-.773-.198l-.166.13-.117-.062a6.95 6.95 0 0 0 .078-1.011v-2.441c0-.37-.084-.381-.295-.444v-.092a3.35 3.35 0 0 0 .573-.244c.06-.034.106-.063.123-.063.034 0 .044.034.044.081v2.072Zm0 1.544c0 .216.201.579.574.579.596 0 .846-.596.846-1.101 0-.612-.456-1.123-.89-1.123-.208 0-.38.136-.53.267v1.379-.001ZM18.585 143.198h.042c.109 0 .224-.015.224-.176v-1.618c0-.161-.115-.176-.224-.176h-.042v-.094c.118 0 .3.013.448.013.148 0 .332-.013.475-.013v.094h-.042c-.11 0-.225.014-.225.176v1.618c0 .16.116.176.225.176h.042v.093c-.145 0-.327-.012-.479-.012-.15 0-.327.012-.444.012v-.093Z"/><path fill="#231F20" d="M19.508 143.303c-.146 0-.328-.012-.479-.012-.15 0-.326.012-.444.012h-.013v-.119h.055c.11-.002.21-.012.21-.163v-1.617c0-.151-.1-.161-.21-.163h-.055v-.119h.013c.118 0 .3.012.448.012.148 0 .331-.012.475-.012h.013v.119h-.055c-.11.002-.21.012-.212.163v1.617c0 .151.101.161.212.163h.055v.119h-.013Zm-.013-.026v-.066h-.03c-.107 0-.237-.02-.237-.191v-1.617c0-.171.13-.19.238-.19h.029v-.065c-.14 0-.316.012-.462.012-.147 0-.319-.011-.436-.012v.065h.03c.108 0 .236.019.236.19v1.617c0 .171-.13.191-.236.191h-.03v.066c.117-.002.289-.012.432-.012.144 0 .323.011.466.012ZM21.588 142.682l.007-.006v-1.159c0-.253-.173-.289-.264-.289h-.066v-.094c.143 0 .282.012.425.012.124 0 .248-.012.372-.012v.094h-.044c-.127 0-.271.024-.271.392v1.406c0 .108.003.216.018.312h-.115l-1.56-1.773v1.272c0 .269.05.361.285.361h.05v.093c-.13 0-.26-.012-.39-.012-.131 0-.276.012-.412.012v-.093h.042c.21 0 .274-.144.274-.392v-1.301a.274.274 0 0 0-.277-.277h-.039v-.094c.115 0 .233.012.348.012.09 0 .18-.012.27-.012l1.348 1.548Z"/><path fill="#231F20" d="m21.764 143.351-.125-.005-1.537-1.746v1.238c.004.268.044.344.272.349h.064v.119h-.014c-.13 0-.26-.012-.39-.012s-.275.012-.413.012h-.013v-.119h.056c.201-.003.257-.134.26-.379v-1.301a.261.261 0 0 0-.262-.264h-.053v-.119h.013c.117 0 .235.012.349.012.09 0 .178-.012.28-.008l1.33 1.528v-1.137c-.001-.245-.161-.275-.25-.277h-.08v-.119h.014c.143 0 .283.012.425.012.123 0 .247-.012.372-.012h.014v.119h-.058c-.125.003-.254.015-.257.379v1.406c0 .107.003.215.017.309l.002.016h-.015v-.001Zm-.115-.028h.1a2.046 2.046 0 0 1-.016-.298v-1.407c0-.371.152-.405.283-.405h.032v-.066c-.12 0-.238.012-.36.012-.139 0-.274-.011-.41-.012v.066h.052c.094 0 .277.042.277.304l-.004 1.168-.006.005-.01.01-1.347-1.553c-.091 0-.178.012-.27.012-.111 0-.225-.011-.335-.012v.066h.026c.142 0 .288.11.288.291v1.301c0 .247-.068.405-.285.406h-.029v.066c.13-.002.266-.013.398-.013.133 0 .253.011.378.013v-.066h-.037c-.239 0-.298-.106-.298-.376v-1.307l1.573 1.794v.001ZM22.515 141.288c-.228 0-.236.056-.282.281h-.09c.011-.086.026-.173.036-.263.012-.086.018-.173.018-.262h.074c.023.092.099.089.181.089h1.562c.082 0 .158-.002.164-.096l.073.013c-.011.083-.024.167-.033.25-.006.084-.006.168-.006.25l-.09.034c-.007-.114-.023-.297-.225-.297H23.4v1.643c0 .239.106.265.252.265h.057v.093c-.118 0-.33-.012-.494-.012-.181 0-.394.012-.512.012v-.093h.058c.167 0 .251-.015.251-.258v-1.651h-.496l-.001.002Z"/><path fill="#231F20" d="M23.709 143.304c-.12 0-.332-.013-.495-.013-.181 0-.393.013-.511.013h-.014v-.119h.07c.168-.005.235-.007.238-.246v-1.638h-.483v-.026h.51v1.663c0 .248-.1.273-.265.273h-.045v.065c.12 0 .323-.012.5-.012.157 0 .36.011.48.012v-.065h-.045c-.146 0-.264-.036-.264-.28v-1.656h.51c.202 0 .23.176.236.291l.066-.025c0-.08 0-.16.005-.242.009-.079.02-.157.031-.237l-.046-.007c-.015.089-.1.094-.175.093h-1.578c-.072 0-.15-.003-.176-.089h-.051c0 .086-.007.169-.018.251-.01.085-.022.167-.034.247h.065c.04-.215.066-.284.291-.281v.027c-.223.004-.218.042-.268.27l-.003.011h-.116l.002-.015c.012-.086.028-.173.037-.263.011-.086.018-.172.018-.26v-.013h.096l.002.01c.02.078.077.078.154.08h1.578c.084-.002.146-.003.151-.084v-.014l.015.002.085.013v.014a4.937 4.937 0 0 0-.033.249c-.006.082-.006.166-.006.25v.009l-.009.004-.108.039v-.018c-.009-.116-.02-.284-.212-.284h-.483v1.629c.003.234.094.25.238.253h.07v.119h-.011ZM24.347 143.198h.042c.109 0 .223-.015.223-.176v-1.618c0-.161-.115-.176-.223-.176h-.042v-.094c.183 0 .5.013.753.013.254 0 .57-.013.776-.013-.006.133-.003.338.006.474l-.092.024c-.014-.201-.05-.361-.369-.361h-.42v.808h.36c.182 0 .221-.105.24-.271h.09a8.052 8.052 0 0 0 0 .714l-.09.018c-.018-.185-.028-.306-.237-.306H25v.719c0 .201.175.201.368.201.364 0 .524-.024.616-.377l.084.022a7.262 7.262 0 0 0-.103.491c-.193 0-.542-.012-.815-.012-.273 0-.633.012-.805.012v-.093.001Z"/><path fill="#231F20" d="M25.966 143.303c-.194 0-.542-.012-.815-.012-.273 0-.633.012-.805.012h-.013v-.119h.055c.109-.002.21-.012.21-.163v-1.618c0-.151-.101-.161-.21-.163h-.055v-.119h.013c.184 0 .5.012.753.012.254 0 .57-.012.776-.012h.014v.013a4.489 4.489 0 0 0 .007.47v.011l-.01.003-.108.029v-.016c-.018-.201-.044-.346-.356-.35h-.408v.782h.347c.174-.001.205-.092.226-.258v-.013h.118v.014a6.692 6.692 0 0 0 0 .713v.011l-.01.003-.107.02v-.014c-.021-.188-.022-.292-.224-.294h-.351v.706c0 .187.159.187.356.187.365-.002.51-.02.603-.366l.003-.013.013.003.097.025-.002.013a7.174 7.174 0 0 0-.103.49l-.002.011h-.01l-.002.002Zm-.01-.026c.026-.155.06-.312.098-.467l-.06-.015c-.09.345-.266.376-.624.373-.19 0-.382 0-.382-.214v-.732h.377c.212-.002.232.128.247.304l.066-.014a7.228 7.228 0 0 1 0-.691h-.066c-.016.162-.066.274-.25.272h-.374v-.836h.434c.316-.002.368.164.381.358l.065-.017a5.242 5.242 0 0 1-.008-.302c0-.054 0-.104.003-.147-.206 0-.513.012-.761.012-.249 0-.555-.011-.741-.012v.066h.029c.108 0 .236.019.238.19v1.619c0 .17-.13.188-.238.19h-.03v.065c.177 0 .528-.012.793-.012.266 0 .608.011.804.012M26.48 141.462c0-.226-.122-.234-.216-.234h-.055v-.094c.097 0 .285.012.47.012.184 0 .327-.012.488-.012.381 0 .72.106.72.544 0 .278-.181.447-.42.544l.518.79c.085.131.145.167.294.185v.092c-.1 0-.197-.012-.297-.012-.095 0-.191.012-.285.012a8.454 8.454 0 0 1-.63-1.001h-.2v.661c0 .239.109.247.248.247h.055v.092c-.174 0-.349-.012-.521-.012-.145 0-.288.012-.44.012v-.092h.055c.111 0 .215-.052.215-.167v-1.569.002Zm.387.717h.148c.303 0 .466-.117.466-.481 0-.274-.173-.452-.443-.452-.091 0-.13.01-.171.012v.921Z"/><path fill="#231F20" d="M28.277 143.303c-.102 0-.198-.012-.298-.012-.092 0-.19.012-.295.008a8.673 8.673 0 0 1-.626-.997h-.18v.648c.004.232.096.23.235.234h.068v.119h-.014c-.174 0-.35-.012-.522-.012-.144 0-.286.012-.439.012h-.012v-.119h.068c.11 0 .2-.049.2-.154v-1.569c-.001-.219-.107-.218-.2-.221h-.068v-.119h.012c.1 0 .285.012.47.012.187 0 .327-.012.489-.012.38 0 .733.108.734.556 0 .278-.181.452-.415.55l.509.778c.084.129.137.161.285.179h.01v.119h-.012Zm-1.411-1.027h.207l.003.007c.197.355.396.688.62.994.093 0 .19-.012.284-.012.094 0 .19.011.285.012v-.068c-.143-.018-.208-.061-.292-.189l-.528-.804.016-.006c.236-.095.412-.26.412-.532 0-.428-.327-.529-.707-.53-.16 0-.307.012-.488.012-.182 0-.358-.011-.457-.012v.066h.042c.094 0 .228.016.228.248v1.569c0 .125-.113.181-.228.181h-.042v.065c.146 0 .284-.012.425-.012.17 0 .34.011.509.012v-.065h-.041c-.138 0-.261-.018-.261-.261v-.674h.013v-.001Zm0-.085h-.013v-.946h.01c.043-.004.083-.012.174-.012.276 0 .456.183.456.465 0 .369-.175.494-.48.494h-.147v-.001Zm.148-.026c.299-.004.45-.109.453-.468-.001-.27-.166-.438-.43-.439-.082 0-.12.008-.158.012v.895h.134ZM30.334 142.682l.005-.006v-1.159c0-.253-.173-.289-.262-.289h-.067v-.094c.142 0 .28.012.424.012.124 0 .248-.012.372-.012v.094h-.045c-.127 0-.27.024-.27.392v1.406c0 .108.002.216.017.312h-.114l-1.56-1.773v1.272c0 .269.052.361.285.361h.052v.093c-.13 0-.261-.012-.391-.012s-.275.012-.412.012v-.093h.043c.21 0 .273-.144.273-.392v-1.301a.273.273 0 0 0-.276-.277h-.038v-.094c.114 0 .233.012.347.012.091 0 .178-.012.27-.012l1.347 1.548Z"/><path fill="#231F20" d="m30.508 143.351-.124-.005-1.536-1.746v1.238c.003.269.043.344.272.349h.064v.119h-.013c-.13 0-.261-.013-.391-.013s-.277.013-.412.013h-.013v-.119h.055c.2 0 .258-.134.26-.38v-1.301a.26.26 0 0 0-.263-.264h-.052v-.119h.014c.115 0 .234.012.347.012.09 0 .177-.012.279-.009l1.331 1.529v-1.137c0-.245-.162-.276-.25-.277h-.08v-.119h.014c.143 0 .282.012.424.012.123 0 .247-.012.372-.012h.013v.119h-.058c-.125.003-.254.015-.257.379v1.406c0 .107.002.214.018.309v.016h-.014Zm-.114-.028h.1a2.218 2.218 0 0 1-.016-.298v-1.407c0-.371.154-.404.283-.405h.032v-.066c-.12 0-.24.012-.36.012-.14 0-.274-.011-.411-.012v.066h.054c.092 0 .276.042.276.304l-.004 1.167-.006.006-.01.011-1.347-1.554c-.09 0-.178.012-.269.012-.112 0-.225-.011-.335-.012v.066h.025c.143 0 .289.11.289.291v1.301c0 .247-.07.405-.287.406h-.029v.065c.131 0 .266-.012.4-.012s.253.011.378.012v-.065h-.038c-.239 0-.298-.106-.3-.376v-1.307l1.575 1.794v.001ZM31.293 142.849c-.03.104-.068.186-.068.241 0 .092.129.108.228.108h.034v.092a7.504 7.504 0 0 0-.367-.012c-.11 0-.219.006-.326.012v-.092h.017c.117 0 .218-.071.262-.201l.485-1.417c.039-.115.095-.269.112-.384.097-.035.218-.095.277-.133.01-.003.014-.005.023-.005s.015 0 .022.009c.009.024.018.053.028.077l.557 1.615c.037.108.072.223.112.315.037.086.1.123.201.123h.017v.092a8.003 8.003 0 0 0-.87 0v-.092h.033c.069 0 .188-.011.188-.09a.963.963 0 0 0-.062-.222l-.118-.358h-.687l-.096.322h-.002Zm.442-1.369h-.006l-.282.874h.566l-.28-.874h.002Z"/><path fill="#231F20" d="M32.906 143.304c-.134-.006-.272-.013-.416-.013-.145 0-.3.007-.454.013h-.014v-.121h.047c.069 0 .173-.015.173-.074 0-.036-.025-.12-.059-.218l-.115-.35h-.669l-.095.312c-.031.106-.067.187-.067.237 0 .075.115.093.215.093h.046v.122h-.014a6.398 6.398 0 0 0-.366-.014c-.109 0-.218.007-.325.013h-.014v-.121h.03c.113 0 .207-.066.251-.191l.485-1.417c.04-.115.094-.269.12-.391.096-.035.217-.096.276-.134.009-.003.016-.007.03-.007.007 0 .023.002.033.018.01.026.018.053.028.077l.558 1.616c.036.108.072.222.111.313.035.082.091.115.188.115h.031v.122h-.014Zm-.858-.029c.15-.005.297-.011.442-.011.144 0 .272.006.403.011v-.064h-.004c-.104 0-.175-.042-.213-.132a4.863 4.863 0 0 1-.112-.316l-.557-1.616c-.01-.025-.018-.053-.026-.075-.003-.003-.002-.003-.004-.003h-.006c-.006 0-.01.002-.017.004-.058.039-.18.1-.27.124-.018.118-.073.271-.112.385l-.484 1.419c-.046.134-.152.21-.276.21h-.004v.064c.103-.005.208-.011.314-.011.116 0 .236.006.352.011v-.064h-.02c-.1-.001-.236-.012-.24-.122 0-.062.037-.141.068-.245l.012.004-.012-.005.099-.33h.705l.122.367a.916.916 0 0 1 .061.226c-.004.095-.131.102-.2.104h-.021v.065Zm-.62-.908.29-.9H31.745l.287.9h-.603Zm.037-.026h.53l-.263-.828-.267.828ZM33.04 141.288c-.227 0-.236.056-.282.281h-.09c.012-.086.028-.173.037-.263.011-.086.018-.173.018-.262h.072c.024.092.1.089.182.089h1.562c.082 0 .156-.002.163-.096l.073.013a9.725 9.725 0 0 0-.033.25c-.008.084-.008.168-.008.25l-.09.034c-.005-.114-.02-.297-.223-.297h-.496v1.643c0 .239.105.265.251.265h.057v.093c-.117 0-.329-.012-.493-.012-.181 0-.394.012-.513.012v-.093h.058c.168 0 .253-.015.253-.258v-1.651h-.497v.002Z"/><path fill="#231F20" d="M34.233 143.303c-.117 0-.33-.012-.493-.012-.181 0-.393.012-.513.012h-.013v-.119h.07c.168-.004.233-.006.238-.245v-1.638h-.483v-.026h.51v1.663c0 .248-.097.272-.265.273h-.044v.065c.12-.001.323-.012.499-.012.158 0 .36.011.48.012v-.065h-.045c-.146-.001-.264-.036-.264-.28v-1.656h.51c.204 0 .23.176.237.291l.066-.025c0-.08 0-.16.006-.242.009-.079.02-.158.031-.237l-.045-.008c-.015.089-.1.094-.176.093H32.96c-.07 0-.148-.003-.176-.09h-.05c0 .087-.006.168-.018.252-.008.085-.022.166-.034.247h.065c.04-.215.066-.286.292-.281v.026c-.224.005-.219.043-.269.271l-.002.011h-.116l.002-.015c.012-.086.028-.173.036-.262.012-.087.019-.173.019-.261v-.013h.096l.002.009c.022.079.078.079.154.081h1.579c.084-.002.146-.003.15-.084v-.014l.015.002.087.013-.003.013a7.005 7.005 0 0 0-.033.249c-.005.083-.005.167-.005.25v.01l-.01.004-.108.039v-.019c-.008-.115-.02-.284-.212-.284h-.483v1.63c.003.234.093.25.237.252h.071v.119h-.013v.001ZM34.887 143.198h.042c.11 0 .224-.015.224-.176v-1.618c0-.161-.114-.176-.224-.176h-.042v-.094c.117 0 .299.013.448.013.149 0 .333-.013.476-.013v.094h-.042c-.11 0-.226.014-.226.176v1.618c0 .16.115.176.226.176h.042v.093c-.146 0-.327-.012-.48-.012-.152 0-.327.012-.444.012v-.093Z"/><path fill="#231F20" d="M35.81 143.303c-.146 0-.328-.012-.479-.012-.15 0-.327.012-.444.012h-.014v-.119h.056c.11-.002.21-.012.21-.163v-1.618c0-.151-.1-.161-.21-.163h-.056v-.119h.014c.117 0 .3.012.448.012.148 0 .332-.012.476-.012h.012v.119h-.056c-.11.002-.21.013-.211.163v1.618c0 .151.1.161.212.163h.055v.119h-.012Zm-.013-.026v-.065h-.028c-.11 0-.238-.02-.238-.191v-1.618c0-.171.129-.19.238-.19h.028v-.066c-.14 0-.314.012-.462.012-.148 0-.318-.011-.435-.012v.066h.029c.108 0 .237.019.237.19v1.618c0 .171-.13.191-.237.191h-.03v.065c.117-.002.289-.012.432-.012.144 0 .323.011.466.012ZM37.019 141.088c.645 0 1.16.407 1.16 1.066 0 .71-.5 1.182-1.145 1.182s-1.133-.443-1.133-1.109c0-.665.487-1.139 1.117-1.139m.045 2.113c.589 0 .69-.529.69-.979 0-.45-.239-.998-.74-.998-.53 0-.687.481-.687.896 0 .552.248 1.081.738 1.081"/><path fill="#231F20" d="M35.888 142.227c.003-.649.495-1.151 1.13-1.154v.028c-.622 0-1.105.491-1.105 1.126 0 .657.485 1.095 1.121 1.096.638 0 1.13-.466 1.133-1.169 0-.65-.508-1.052-1.148-1.052v-.028c.65.002 1.171.413 1.172 1.08 0 .718-.505 1.196-1.157 1.197-.648-.001-1.145-.452-1.147-1.122m.425-.109c0-.416.16-.909.7-.909.515 0 .755.558.755 1.012 0 .45-.105.991-.704.991v-.026c.577 0 .676-.516.678-.966 0-.448-.236-.985-.729-.985-.519 0-.673.472-.673.883 0 .55.246 1.067.725 1.068v.026c-.502 0-.751-.538-.752-1.094ZM40.22 142.682l.007-.006v-1.159c0-.253-.173-.289-.265-.289h-.065v-.094c.142 0 .282.012.424.012.125 0 .249-.012.372-.012v.094h-.045c-.128 0-.27.024-.27.392v1.406c0 .108.003.216.018.312h-.115l-1.56-1.773v1.272c0 .269.051.361.286.361h.05v.093c-.13 0-.26-.012-.39-.012-.131 0-.277.012-.413.012v-.093h.043c.21 0 .272-.144.272-.392v-1.301a.273.273 0 0 0-.275-.277h-.039v-.094c.116 0 .233.012.349.012.09 0 .178-.012.269-.012l1.348 1.548Z"/><path fill="#231F20" d="m40.395 143.351-.125-.005-1.537-1.746v1.238c.004.269.045.344.271.348h.066v.12h-.013c-.13 0-.261-.012-.39-.012-.13 0-.276.012-.413.012h-.012v-.12h.055c.2 0 .257-.133.26-.378v-1.301a.26.26 0 0 0-.263-.264h-.052v-.119h.012c.117 0 .234.012.349.012.09 0 .177-.012.28-.008l1.33 1.528v-1.137c0-.245-.161-.275-.25-.277h-.08v-.119h.013c.143 0 .283.012.423.012.126 0 .248-.012.374-.012h.013v.119h-.058c-.125.003-.254.015-.256.379v1.406c0 .107.002.215.016.309l.002.016h-.015v-.001Zm-.116-.028h.1a2.213 2.213 0 0 1-.015-.298v-1.407c0-.371.153-.404.283-.405h.032v-.066c-.12 0-.24.012-.36.012-.138 0-.273-.011-.411-.012v.066h.053c.095 0 .277.043.277.304l-.003 1.168-.005.005-.01.011-1.348-1.554c-.09 0-.179.012-.27.012-.111 0-.225-.011-.335-.012v.066h.026c.142 0 .29.11.29.291v1.301c0 .247-.069.405-.286.406h-.029v.065c.132 0 .266-.012.4-.012.126 0 .252.011.377.012v-.065h-.038c-.238 0-.297-.106-.297-.376v-1.307l1.572 1.794-.002.001ZM41.179 142.849c-.03.104-.066.186-.066.241 0 .092.129.108.227.108h.033v.092a7.451 7.451 0 0 0-.367-.012c-.11 0-.218.006-.326.012v-.092h.016c.119 0 .22-.071.265-.201l.485-1.417c.038-.115.093-.269.11-.384.098-.035.219-.095.276-.133.01-.003.015-.005.025-.005.01 0 .014 0 .02.009l.029.077.556 1.615c.036.108.074.223.113.315.035.086.1.123.2.123h.018v.092a8.035 8.035 0 0 0-.872 0v-.092h.033c.07 0 .188-.011.188-.09 0-.04-.028-.123-.062-.222l-.117-.358h-.687l-.098.322Zm.442-1.369h-.006l-.282.874h.568l-.28-.874Z"/><path fill="#231F20" d="M42.793 143.303c-.136-.005-.273-.012-.417-.012-.143 0-.3.007-.454.012h-.013v-.119h.045c.07 0 .175-.016.176-.075a.997.997 0 0 0-.062-.219l-.114-.349h-.668l-.093.312c-.03.106-.067.187-.066.237 0 .076.113.096.214.096h.046v.12h-.014a6.394 6.394 0 0 0-.365-.014c-.109 0-.218.007-.327.013h-.013v-.119h.03c.113-.001.208-.067.252-.193l.485-1.417c.039-.115.093-.269.12-.391.095-.034.217-.096.275-.134a.077.077 0 0 1 .029-.006c.008 0 .024.001.033.018.01.025.018.052.027.078l.558 1.615c.035.108.072.223.112.314.035.083.09.115.188.116h.031v.12h-.013l-.002-.003Zm-.858-.028c.149-.006.297-.011.441-.011.145 0 .272.006.404.011v-.064h-.004c-.103 0-.175-.042-.212-.132-.041-.094-.077-.208-.112-.316l-.557-1.616c-.009-.025-.02-.053-.026-.074l-.005-.004h-.005c-.007 0-.01.002-.017.004-.059.038-.18.101-.27.124-.019.118-.074.271-.112.385l-.485 1.419c-.047.134-.151.21-.277.21h-.005v.064c.105-.005.21-.011.315-.011.117 0 .237.006.354.011v-.064h-.021c-.099-.001-.237-.012-.24-.122 0-.061.038-.14.068-.245l.012.004-.012-.005.1-.33h.707l.12.366c.034.1.061.182.061.227-.004.095-.132.102-.2.104h-.02v.065h-.002Zm-.62-.909.291-.899h.024l.286.899h-.602Zm.037-.026h.53l-.265-.827-.265.827ZM43.557 142.987c0 .124.085.161.182.173.124.01.26.01.4-.006a.432.432 0 0 0 .29-.168.724.724 0 0 0 .095-.222h.087c-.033.176-.077.349-.112.525-.267 0-.534-.012-.8-.012-.265 0-.532.012-.8.012v-.094h.043c.11 0 .228-.014.228-.207v-1.586c0-.161-.118-.177-.228-.177H42.9v-.093c.16 0 .318.012.478.012.16 0 .307-.012.461-.012v.093h-.077c-.114 0-.205.004-.205.168V142.987Z"/><path fill="#231F20" d="M44.498 143.303c-.267 0-.534-.012-.8-.012-.265 0-.533.012-.8.012h-.012v-.119h.055c.11-.002.214-.011.215-.194v-1.588c0-.15-.105-.161-.215-.163h-.055v-.119h.012c.16 0 .318.012.48.012.16 0 .305-.012.46-.012h.012v.119h-.089c-.117.003-.19-.003-.193.154v1.593c.001.115.075.146.17.16.054.003.11.005.168.005.074 0 .151-.003.23-.012a.425.425 0 0 0 .282-.16.687.687 0 0 0 .09-.219l.004-.011h.114l-.003.017c-.033.176-.075.349-.112.525l-.004.01h-.01v.002Zm-.011-.026c.035-.167.075-.331.107-.499h-.063a.691.691 0 0 1-.093.218.443.443 0 0 1-.3.172 2.068 2.068 0 0 1-.402.005c-.099-.011-.194-.053-.193-.186v-1.593c0-.172.106-.181.22-.181h.062v-.066c-.149 0-.297.012-.447.012-.15 0-.31-.011-.465-.012v.066h.029c.108 0 .24.019.24.19v1.588c0 .2-.131.221-.24.221h-.03v.065c.262 0 .525-.012.788-.012s.526.011.788.012M44.573 141.047c.183 0 .319.143.319.326a.315.315 0 0 1-.319.324.316.316 0 0 1-.32-.324c0-.182.138-.326.32-.326Zm0 .589a.26.26 0 0 0 .253-.263c0-.14-.108-.265-.253-.265-.144 0-.252.125-.252.265s.109.263.252.263Zm-.158-.092v-.017c.038-.005.046-.003.046-.03v-.24c0-.034-.003-.046-.045-.044v-.016h.164c.055 0 .107.027.107.087 0 .048-.032.083-.076.098l.052.075a.343.343 0 0 0 .071.076v.011h-.062c-.03 0-.055-.065-.115-.15h-.035v.108c0 .022.008.02.047.025v.017h-.154Zm.108-.172h.037c.041 0 .06-.032.06-.083 0-.05-.03-.069-.062-.069h-.034v.153l-.002-.001Z"/><path fill="#0D4E96" d="M10.5 145.036c-2.928.014-5.338-2.405-5.338-5.35 0-3.218 2.41-5.445 5.338-5.444h1.372c2.893 0 5.534 2.225 5.534 5.445 0 2.944-2.641 5.35-5.534 5.35H10.5v-.001Zm.012-10.349c-2.675 0-4.843 2.213-4.843 4.941 0 2.729 2.168 4.941 4.843 4.941s4.843-2.212 4.844-4.941c0-2.728-2.169-4.94-4.844-4.941Zm-1.1 7.863v-5.843a3.137 3.137 0 0 0-1.97 2.923 3.134 3.134 0 0 0 1.97 2.921m4.17-2.921a3.131 3.131 0 0 0-1.972-2.923v5.846a3.133 3.133 0 0 0 1.973-2.922"/></g></g><g clip-path="url(#clip1_124_1303)"><path fill="#fff" d="M97.912 120H52.088c-1.153 0-2.088.954-2.088 2.13v35.74c0 1.176.935 2.13 2.088 2.13h45.824c1.153 0 2.088-.954 2.088-2.13v-35.74c0-1.176-.935-2.13-2.088-2.13Z"/><path stroke="#9DADBC" stroke-opacity=".36" d="M97.912 120.5H52.088c-.882 0-1.598.73-1.598 1.63v35.74c0 .9.716 1.63 1.598 1.63h45.824c.882 0 1.598-.73 1.598-1.63v-35.74c0-.9-.716-1.63-1.598-1.63Z"/><path fill="#EE2F43" d="M89.306 136.892c-.524 3.906-3.847 7.371-5.368 8.518a22.38 22.38 0 0 1 5.368-.883v-7.635Z"/><path fill="#016B4F" d="M95.098 145.102c-3.479-4.114-5.007-9.278-5.188-12.429v11.84c1.87-.019 3.606.211 5.188.591v-.002Z"/><path fill="#231F20" d="M56.495 138.598h-1.559a2.347 2.347 0 0 1 0-.757h3.97a1.664 1.664 0 0 1 .033.366c0 .064-.004.129-.008.199a1.62 1.62 0 0 1-.024.192h-1.561v5.361a3.019 3.019 0 0 1-.418.025c-.15 0-.3-.007-.433-.025v-5.361ZM61.459 141.083c0-.335-.084-.568-.25-.697-.168-.13-.409-.196-.726-.196-.196 0-.376.016-.547.047a3.756 3.756 0 0 0-.496.124 1.341 1.341 0 0 1-.157-.673 4.335 4.335 0 0 1 1.284-.195c.556 0 .977.13 1.268.387.288.258.433.67.433 1.238v2.731c-.196.044-.431.093-.709.141a4.888 4.888 0 0 1-.85.072c-.274 0-.519-.025-.739-.078a1.469 1.469 0 0 1-.558-.246 1.133 1.133 0 0 1-.355-.433 1.485 1.485 0 0 1-.126-.638c0-.248.05-.457.147-.643.096-.184.23-.337.396-.459.168-.122.36-.213.576-.273.216-.06.444-.089.684-.089a5.267 5.267 0 0 1 .727.043v-.161l-.002-.002Zm0 .825a7.02 7.02 0 0 0-.317-.035 3.93 3.93 0 0 0-.325-.017c-.346 0-.608.066-.788.195-.18.13-.272.33-.272.597 0 .17.03.304.092.399a.62.62 0 0 0 .23.221c.093.05.193.081.303.093a3.236 3.236 0 0 0 .714-.004c.137-.014.257-.035.363-.064v-1.387.002ZM63.477 137.723c.061-.012.13-.02.206-.026a3.08 3.08 0 0 1 .414 0c.077.006.148.014.208.026v6.236a2.72 2.72 0 0 1-.418.033c-.06 0-.129-.004-.205-.008a1.664 1.664 0 0 1-.205-.025v-6.236Zm1.052 3.974 1.36-2.101a2.662 2.662 0 0 1 .443-.033 3.096 3.096 0 0 1 .467.033l-1.36 2.041 1.593 2.322a2.727 2.727 0 0 1-.452.033c-.078 0-.156-.004-.233-.008a2.645 2.645 0 0 1-.234-.025l-1.585-2.264.001.002ZM70.017 141.083c0-.335-.083-.568-.25-.697-.167-.13-.409-.196-.726-.196-.195 0-.376.016-.547.047a3.756 3.756 0 0 0-.495.124 1.341 1.341 0 0 1-.158-.673 4.334 4.334 0 0 1 1.284-.195c.556 0 .978.13 1.268.387.289.258.433.67.433 1.238v2.731c-.195.044-.43.093-.708.141a4.89 4.89 0 0 1-.85.072c-.274 0-.52-.025-.74-.078a1.47 1.47 0 0 1-.558-.246 1.135 1.135 0 0 1-.355-.433 1.486 1.486 0 0 1-.125-.638c0-.248.05-.457.146-.643.097-.184.23-.337.397-.459s.359-.213.575-.273c.217-.06.445-.089.684-.089a5.262 5.262 0 0 1 .727.043v-.161l-.002-.002Zm0 .825a7.036 7.036 0 0 0-.317-.035 3.932 3.932 0 0 0-.325-.017c-.345 0-.607.066-.788.195-.18.13-.271.33-.271.597 0 .17.03.304.091.399a.62.62 0 0 0 .23.221c.093.05.194.081.304.093a3.24 3.24 0 0 0 .714-.004c.136-.014.256-.035.362-.064v-1.387.002ZM72.136 137.833a8.238 8.238 0 0 1 .656-.064c.125-.008.25-.016.376-.021a7.57 7.57 0 0 1 .362-.008c.306 0 .596.031.872.093.275.062.516.17.725.323.21.153.374.357.496.609.121.251.184.569.184.949 0 .379-.064.728-.195.991a1.742 1.742 0 0 1-.517.634 2.02 2.02 0 0 1-.73.337c-.273.066-.55.098-.833.098-.106 0-.2 0-.279-.003a2.598 2.598 0 0 1-.262-.022v2.212a3.193 3.193 0 0 1-.425.025c-.067 0-.137 0-.213-.004a1.539 1.539 0 0 1-.213-.021v-6.128h-.004Zm.851 3.157a3.606 3.606 0 0 0 .526.033c.173 0 .344-.018.513-.056.169-.037.32-.103.454-.2.133-.097.24-.228.32-.395.08-.166.122-.383.122-.651 0-.232-.034-.428-.104-.587a.981.981 0 0 0-.731-.586 2.532 2.532 0 0 0-.559-.06c-.2 0-.387.007-.543.025v2.475l.002.002ZM78.927 141.083c0-.335-.084-.568-.25-.697-.168-.13-.409-.196-.726-.196-.196 0-.376.016-.547.047a3.756 3.756 0 0 0-.496.124 1.342 1.342 0 0 1-.157-.673 4.336 4.336 0 0 1 1.284-.195c.556 0 .977.13 1.268.387.289.258.433.67.433 1.238v2.731c-.196.044-.431.093-.709.141a4.887 4.887 0 0 1-.85.072c-.274 0-.519-.025-.739-.078a1.5 1.5 0 0 1-.558-.246 1.133 1.133 0 0 1-.355-.433 1.486 1.486 0 0 1-.126-.638c0-.248.05-.457.147-.643.096-.184.23-.337.396-.459.168-.122.36-.213.576-.273.216-.06.444-.089.684-.089a5.262 5.262 0 0 1 .727.043v-.161l-.002-.002Zm0 .825a7.01 7.01 0 0 0-.317-.035 3.927 3.927 0 0 0-.325-.017c-.346 0-.608.066-.788.195-.18.13-.272.33-.272.597 0 .17.03.304.092.399a.62.62 0 0 0 .23.221c.093.05.193.081.303.093a3.24 3.24 0 0 0 .714-.004c.137-.014.257-.035.363-.064v-1.387.002ZM82.44 143.967c-.046 0-.091 0-.139.004-.047.002-.093.004-.136.004-.056 0-.114 0-.175-.004a1.814 1.814 0 0 1-.15-.014l-1.419-4.365c.072-.012.148-.018.226-.022.078-.002.15-.004.217-.004.072 0 .154 0 .241.004.09.004.163.01.226.022l1.185 4.059 1.227-4.059a3.945 3.945 0 0 1 .617-.022c.078.004.155.01.233.022l-1.66 5.251a3.963 3.963 0 0 1-.24.586 1.418 1.418 0 0 1-.284.384.89.89 0 0 1-.355.203c-.13.039-.282.06-.453.06a2.676 2.676 0 0 1-.71-.1c0-.13.01-.246.034-.349.022-.103.055-.203.1-.306.05.017.118.035.205.056.086.019.179.029.28.029.072 0 .14-.008.204-.021a.45.45 0 0 0 .179-.085.654.654 0 0 0 .154-.182c.047-.08.093-.188.136-.324l.259-.825-.002-.002Z"/></g><g clip-path="url(#clip2_124_1303)"><path fill="#fff" d="M47.912 0H2.088C.935 0 0 .954 0 2.13v35.74C0 39.046.935 40 2.088 40h45.824C49.065 40 50 39.046 50 37.87V2.13C50 .954 49.065 0 47.912 0Z"/><path stroke="#9DADBC" stroke-miterlimit="10" stroke-opacity=".36" d="M47.912.5H2.088C1.206.5.49 1.23.49 2.13v35.74c0 .9.716 1.63 1.598 1.63h45.824c.882 0 1.598-.73 1.598-1.63V2.13c0-.9-.716-1.63-1.598-1.63Z"/><path fill="#2F6EB7" fill-rule="evenodd" d="M11.765 7h25.882v26.4H11.765V7Z" clip-rule="evenodd"/><path fill="#fff" fill-rule="evenodd" d="M21.183 29.22v-9.46h16.464v2.64l-1.87 2.053 1.87 2.127v2.64h-3.02l-1.653-1.833-1.582 1.833H21.183Z" clip-rule="evenodd"/><path fill="#2F6EB7" fill-rule="evenodd" d="M22.262 28.193v-7.406h6.11v1.686h-4.098v1.174h4.027v1.686h-4.026v1.1h4.098v1.76h-6.111Z" clip-rule="evenodd"/><path fill="#2F6EB7" fill-rule="evenodd" d="m28.372 28.193 3.38-3.74-3.38-3.666h2.589l2.085 2.346 2.085-2.346h2.516v.073l-3.307 3.593 3.307 3.594v.146h-2.516l-2.085-2.42-2.157 2.42h-2.517Z" clip-rule="evenodd"/><path fill="#fff" fill-rule="evenodd" d="M21.902 11.327h4.026l1.366 3.226v-3.226h4.96l.792 2.42.862-2.42h3.74v9.46H17.803l4.098-9.46Z" clip-rule="evenodd"/><path fill="#2F6EB7" fill-rule="evenodd" d="m22.693 12.353-3.235 7.407h2.228l.576-1.467h3.307l.575 1.467h2.229l-3.164-7.407h-2.516Zm.287 4.254.935-2.347.935 2.347h-1.87Z" clip-rule="evenodd"/><path fill="#2F6EB7" fill-rule="evenodd" d="M28.372 19.76v-7.407h3.092l1.654 4.547 1.581-4.547h2.948v7.407h-1.87V14.7l-1.869 5.06h-1.725l-1.87-5.06v5.06h-1.94Z" clip-rule="evenodd"/></g><g clip-path="url(#clip3_124_1303)"><path fill="#fff" d="M97.912 0H52.088C50.935 0 50 .954 50 2.13v35.74c0 1.176.935 2.13 2.088 2.13h45.824c1.153 0 2.088-.954 2.088-2.13V2.13C100 .954 99.065 0 97.912 0Z"/><path stroke="#9DADBC" stroke-opacity=".36" d="M97.912.5H52.088c-.882 0-1.598.73-1.598 1.63v35.74c0 .9.716 1.63 1.598 1.63h45.824c.882 0 1.598-.73 1.598-1.63V2.13c0-.9-.716-1.63-1.598-1.63Z"/><path fill="#FF5F00" d="M78.922 12.925H71.2v14.15h7.72v-14.15Z"/><path fill="#EB001B" d="M71.691 20a9.09 9.09 0 0 1 3.358-7.075A8.662 8.662 0 0 0 69.608 11c-4.878 0-8.824 4.025-8.824 9s3.946 9 8.824 9a8.662 8.662 0 0 0 5.441-1.925c-2.034-1.625-3.358-4.2-3.358-7.075Z"/><path fill="#F79E1B" d="M89.338 20c0 4.975-3.946 9-8.823 9a8.662 8.662 0 0 1-5.442-1.925c2.06-1.65 3.358-4.2 3.358-7.075a9.09 9.09 0 0 0-3.358-7.075A8.662 8.662 0 0 1 80.516 11c4.877 0 8.823 4.05 8.823 9Z"/></g><g clip-path="url(#clip4_124_1303)"><path fill="#fff" d="M47.912 40H2.088C.935 40 0 40.954 0 42.13v35.74C0 79.046.935 80 2.088 80h45.824C49.065 80 50 79.046 50 77.87V42.13c0-1.176-.935-2.13-2.088-2.13Z"/><path stroke="#9DADBC" stroke-opacity=".36" d="M47.912 40.5H2.088c-.882 0-1.598.73-1.598 1.63v35.74c0 .9.716 1.63 1.598 1.63h45.824c.882 0 1.598-.73 1.598-1.63V42.13c0-.9-.716-1.63-1.598-1.63Z"/><path fill="#D12053" d="m41.636 60.462-8.71-1.392 1.155 5.294 7.555-3.902Z"/><path fill="#E2136E" d="m41.636 60.462-6.563-9.301-2.145 7.911 8.708 1.39Z"/><path fill="#D12053" d="M32.724 58.965 25.847 50l9.006 1.097-2.129 7.868Z"/><path fill="#9E1638" d="m29.592 55.219-3.819-3.671h1.005l2.814 3.67Z"/><path fill="#D12053" d="m43.494 55.94-1.616 4.472-2.62-3.695 4.236-.776Z"/><path fill="#E2136E" d="m35.097 64.096 6.342-2.598.266-.826-6.608 3.424Z"/><path fill="#9E1638" d="m30.026 69 2.716-9.72 1.378 6.324L30.026 69Z"/><path fill="#E2136E" d="m43.747 55.976-.667 1.846 2.405-.04-1.738-1.806Zm-38.845.74c.117.01.235.032.36.032.124 0 .226-.022.36-.032v3.932c.379-.658.857-1.092 1.56-1.092 1.271 0 1.816 1.283 1.816 2.463 0 1.412-.739 2.764-2.035 2.764a1.4 1.4 0 0 1-.74-.193 1.437 1.437 0 0 1-.536-.556c-.217.195-.409.427-.614.639h-.164l-.007-7.957Zm.703 5.784c0 1.146.476 1.945 1.26 1.945 1.016 0 1.343-1.394 1.343-2.383 0-1.147-.37-2.05-1.251-2.06-1.028-.009-1.352 1.233-1.352 2.5V62.5Z"/><path fill="#231F20" d="m12.315 59.26-.766 1.005c.72 1.072 1.465 2.122 2.188 3.208l.73 1.173v.058c-.18-.011-.343-.035-.494-.035-.15 0-.341.024-.502.035a12.488 12.488 0 0 0-.621-1.062l-1.971-2.974c-.044-.046-.151-.083-.151-.035v4.071c-.145-.011-.271-.035-.396-.035s-.27.024-.396.035v-7.988c.127.01.263.036.396.036s.251-.026.396-.036v3.606c0 .07.135.023.223-.07.171-.181.332-.373.48-.574l2.216-2.965c.116.01.233.035.36.035.126 0 .223-.025.35-.035l-2.042 2.547Zm5.96 4.545c0 .415-.026.626.504.489v.233c-.086.044-.177.08-.27.105-.469.096-.856.01-.929-.615l-.08.093c-.157.209-.358.378-.59.495a1.644 1.644 0 0 1-.744.175c-.637 0-1.196-.513-1.196-1.299 0-1.21.822-1.37 1.664-1.53.713-.136.956-.2.956-.711 0-.788-.378-1.243-1.053-1.243a1.11 1.11 0 0 0-.648.194 1.144 1.144 0 0 0-.422.538h-.1v-.59c.406-.36.92-.566 1.458-.583.944 0 1.458.583 1.458 1.784l-.008 2.465Zm-.72-1.754-.316.073c-.613.138-1.531.243-1.531 1.213 0 .67.328 1.006.88 1.006.286-.036.547-.183.73-.41.065-.076.246-.257.246-.334l-.008-1.548Zm2.325 1.613c.213.417.61.79 1.035.79a.924.924 0 0 0 .634-.3.96.96 0 0 0 .25-.667c0-1.435-2.128-.503-2.128-2.36 0-1.018.657-1.57 1.467-1.57.358-.007.711.088 1.018.276-.088.245-.16.497-.213.754h-.082c-.119-.35-.432-.703-.766-.703-.45 0-.821.31-.821.885 0 1.359 2.127.635 2.127 2.336 0 1.137-.864 1.675-1.659 1.675-.398 0-.788-.117-1.123-.335.08-.255.143-.515.189-.78h.072Zm3.733-6.948c.12.01.237.032.361.032.125 0 .227-.021.362-.032v3.869c.315-.649.81-1.029 1.45-1.029 1.045 0 1.45.73 1.45 2.07v3.078c-.136-.011-.24-.031-.36-.031s-.244.021-.362.031V61.87c0-1.173-.232-1.764-.999-1.764-.811 0-1.18.596-1.18 1.7v2.898c-.134-.011-.24-.031-.36-.031s-.24.021-.362.031v-7.988Z"/></g><g clip-path="url(#clip5_124_1303)"><path fill="#fff" d="M147.912 0h-45.824C100.935 0 100 .954 100 2.13v35.74c0 1.176.935 2.13 2.088 2.13h45.824c1.153 0 2.088-.954 2.088-2.13V2.13c0-1.176-.935-2.13-2.088-2.13Z"/><path stroke="#9DADBC" stroke-miterlimit="10" stroke-opacity=".36" d="M147.912.5h-45.824c-.882 0-1.598.73-1.598 1.63v35.74c0 .9.716 1.63 1.598 1.63h45.824c.882 0 1.598-.73 1.598-1.63V2.13c0-.9-.716-1.63-1.598-1.63Z"/><path fill="#00579F" d="M121.425 25.42h-2.905l1.817-11.462h2.906l-1.818 11.462ZM131.956 14.238a7.03 7.03 0 0 0-2.606-.488c-2.87 0-4.89 1.561-4.902 3.792-.023 1.646 1.447 2.561 2.549 3.11 1.125.561 1.506.927 1.506 1.427-.012.768-.909 1.122-1.745 1.122a5.694 5.694 0 0 1-2.727-.61l-.382-.183-.407 2.573a8.689 8.689 0 0 0 3.24.61c3.049 0 5.034-1.537 5.057-3.914.012-1.3-.764-2.3-2.439-3.122-1.017-.524-1.638-.878-1.638-1.415.012-.488.526-.988 1.673-.988a4.854 4.854 0 0 1 2.165.439l.263.122.392-2.475h.001ZM135.821 21.36c.239-.658 1.159-3.207 1.159-3.207-.011.024.24-.671.383-1.1l.203.988s.55 2.744.669 3.317l-2.414.002Zm3.586-7.4h-2.248a1.412 1.412 0 0 0-.922.205 1.457 1.457 0 0 0-.597.746l-4.314 10.511h3.049l.61-1.719h3.731c.083.4.347 1.719.347 1.719h2.69l-2.345-11.464-.001.002ZM116.093 13.958l-2.843 7.816-.311-1.585a8.726 8.726 0 0 0-4.019-4.8l2.606 10.024h3.073l4.568-11.45-3.074-.005Z"/><path fill="#FAA61A" d="M110.605 13.958h-4.675l-.048.232a9.646 9.646 0 0 1 4.269 2.096 9.91 9.91 0 0 1 2.79 3.904l-1.016-5.268a1.23 1.23 0 0 0-.475-.742 1.184 1.184 0 0 0-.84-.222h-.005Z"/></g><g clip-path="url(#clip6_124_1303)"><path fill="#fff" d="M147.912 40h-45.824c-1.153 0-2.088.954-2.088 2.13v35.74c0 1.176.935 2.13 2.088 2.13h45.824c1.153 0 2.088-.954 2.088-2.13V42.13c0-1.176-.935-2.13-2.088-2.13Z"/><path stroke="#9DADBC" stroke-opacity=".36" d="M147.912 40.5h-45.824c-.882 0-1.598.73-1.598 1.63v35.74c0 .9.716 1.63 1.598 1.63h45.824c.882 0 1.598-.73 1.598-1.63V42.13c0-.9-.716-1.63-1.598-1.63Z"/><mask id="mask1_124_1303" width="29" height="17" x="111" y="46" maskUnits="userSpaceOnUse" style="mask-type:luminance"><path fill="#fff" d="M139.216 46h-27.451v17h27.451V46Z"/></mask><g mask="url(#mask1_124_1303)"><path fill="url(#paint0_linear_124_1303)" d="M139.198 54.962c0 4.44-6.141 8.038-13.717 8.038-7.574 0-13.716-3.598-13.716-8.038 0-4.439 6.142-8.039 13.716-8.039 7.576 0 13.717 3.6 13.717 8.04Z"/><path fill="url(#paint1_linear_124_1303)" stroke="#C5C5C6" stroke-miterlimit="10" stroke-width=".385" d="M139.198 54.148c0 4.49-6.128 8.13-13.688 8.13-7.559 0-13.687-3.64-13.687-8.13s6.128-8.13 13.687-8.13c7.56 0 13.688 3.64 13.688 8.13Z"/><path fill="#E8242A" fill-rule="evenodd" d="M129.832 62.021c-.38.063-.731.136-1.084.174-.784.084-1.571.153-2.356.223-.177.016-.353.016-.53.016a.18.18 0 0 1-.112-.048c-1.693-1.608-3.301-3.29-4.617-5.212a10.088 10.088 0 0 1-1.048-1.931c-.451-1.12-.281-2.155.402-3.134.528-.757 1.21-1.363 1.952-1.912 1.124-.832 2.351-1.498 3.616-2.098a37.622 37.622 0 0 1 4.355-1.734.575.575 0 0 1 .284-.016c.321.07.638.157.957.261-.234.086-.47.17-.704.258-1.682.631-3.305 1.377-4.813 2.345-.81.518-1.569 1.1-2.203 1.82-.48.543-.862 1.138-1.021 1.848a2.66 2.66 0 0 0 .163 1.704c.329.748.789 1.416 1.294 2.057.944 1.2 2.014 2.29 3.142 3.324.737.677 1.5 1.327 2.251 1.988l.072.067Z" clip-rule="evenodd"/><path fill="#214596" fill-rule="evenodd" d="M124.451 62.43c-.295-.013-.557-.016-.818-.038-.535-.045-1.074-.08-1.606-.157-.701-.102-1.398-.239-2.095-.363a.161.161 0 0 1-.084-.054c-1.231-1.45-2.368-2.963-3.198-4.673-.315-.651-.557-1.325-.67-2.042-.126-.792.053-1.517.463-2.198.436-.726 1.033-1.316 1.69-1.852.999-.813 2.102-1.473 3.248-2.068 2.274-1.18 4.664-2.091 7.104-2.89.351-.115.668-.045 1.002.01.15.027.299.056.481.09-.263.094-.498.175-.73.261-1.939.711-3.826 1.53-5.615 2.55-1.033.59-2.02 1.241-2.89 2.047-.458.424-.868.885-1.191 1.417-.547.897-.644 1.829-.276 2.814.34.908.827 1.738 1.372 2.54.926 1.36 1.988 2.618 3.1 3.838.226.248.457.493.713.769Z" clip-rule="evenodd"/><path fill="#0D984A" fill-rule="evenodd" d="M134.358 60.584c-.343.142-.662.282-.985.41-.756.297-1.533.538-2.322.74a.194.194 0 0 1-.183-.035c-1.636-1.241-3.209-2.547-4.64-4.01-.77-.79-1.494-1.616-2.046-2.57-.217-.372-.397-.762-.48-1.188-.137-.696.004-1.35.337-1.97.346-.646.836-1.182 1.389-1.665.984-.858 2.1-1.525 3.265-2.12a29.65 29.65 0 0 1 3.247-1.404.375.375 0 0 1 .272-.006c.301.107.604.208.926.317-.344.133-.666.25-.984.38-1.272.52-2.489 1.137-3.577 1.97-.659.505-1.246 1.077-1.661 1.795a3.215 3.215 0 0 0-.446 1.846c.03.495.232.93.497 1.342.433.68.975 1.274 1.558 1.834 1.149 1.101 2.414 2.063 3.733 2.96.663.452 1.344.877 2.017 1.315.018.011.037.025.083.059Z" clip-rule="evenodd"/></g><path fill="#000" d="M113.367 75v-7.11h2.145c.613 0 1.16.142 1.642.425.485.28.863.68 1.135 1.202.271.517.406 1.106.406 1.767v.327c0 .661-.134 1.249-.402 1.763-.265.514-.64.913-1.125 1.196a3.23 3.23 0 0 1-1.642.43h-2.159Zm1.437-5.923v4.746h.694c.561 0 .991-.187 1.287-.561.297-.375.449-.91.455-1.607v-.376c0-.722-.147-1.27-.44-1.64-.294-.375-.723-.562-1.288-.562h-.708Zm4.94 5.923v-7.11h2.441c.846 0 1.487.167 1.925.499.437.328.655.812.655 1.45 0 .348-.087.656-.263.923a1.53 1.53 0 0 1-.732.58c.357.092.638.276.842.552.208.277.311.616.311 1.016 0 .684-.213 1.201-.641 1.553-.428.352-1.037.53-1.829.537h-2.709Zm1.436-3.096v1.92h1.23c.339 0 .602-.082.79-.245.192-.166.287-.394.287-.683 0-.651-.33-.982-.991-.992h-1.316Zm0-1.035h1.063c.724-.013 1.086-.308 1.086-.884 0-.322-.092-.553-.277-.693-.182-.143-.471-.215-.867-.215h-1.005v1.792ZM126.005 75v-7.11h2.442c.845 0 1.487.167 1.924.499.437.328.656.812.656 1.45 0 .348-.088.656-.263.923-.176.263-.42.457-.733.58.358.092.639.276.843.552.207.277.311.616.311 1.016 0 .684-.214 1.201-.642 1.553-.427.352-1.037.53-1.828.537h-2.71Zm1.436-3.096v1.92h1.231c.338 0 .601-.082.79-.245.191-.166.287-.394.287-.683 0-.651-.331-.982-.991-.992h-1.317Zm0-1.035h1.063c.725-.013 1.087-.308 1.087-.884 0-.322-.093-.553-.278-.693-.182-.143-.471-.215-.866-.215h-1.006v1.792Zm6.262 2.954h3.049V75h-4.485v-7.11h1.436v5.933Z"/></g><g clip-path="url(#clip7_124_1303)"><path fill="#fff" d="M147.912 80h-45.824c-1.153 0-2.088.954-2.088 2.13v35.74c0 1.176.935 2.13 2.088 2.13h45.824c1.153 0 2.088-.954 2.088-2.13V82.13c0-1.176-.935-2.13-2.088-2.13Z"/><path stroke="#9DADBC" stroke-miterlimit="10" stroke-opacity=".36" d="M147.912 80.5h-45.824c-.882 0-1.598.73-1.598 1.63v35.74c0 .9.716 1.63 1.598 1.63h45.824c.882 0 1.598-.73 1.598-1.63V82.13c0-.9-.716-1.63-1.598-1.63Z"/><path fill="#EA2227" d="M121.254 100.394a7.427 7.427 0 0 1-1.271 4.16 7.232 7.232 0 0 1-2.819 2.455 7.07 7.07 0 0 1-7.143-.544 7.302 7.302 0 0 1-2.429-2.855 7.458 7.458 0 0 1-.714-3.71 7.437 7.437 0 0 1 1.19-3.58 7.246 7.246 0 0 1 2.78-2.501c-.191.25-.364.514-.517.79l-.037.068-.007.006a6.48 6.48 0 0 0-.601.571c-.023.025-.047.05-.068.076l-.069.077a5.742 5.742 0 0 0-.325.406 6.436 6.436 0 0 0-.743 1.308l-.057.138-.062.166a5.91 5.91 0 0 0-.113.341c-.018.056-.033.113-.049.169l-.025.09-.041.172a5.218 5.218 0 0 0-.098.561c-.007.047-.012.1-.018.144a4.753 4.753 0 0 0-.026.295c0 .058-.007.116-.01.175 0 .095-.006.19-.006.286a6.495 6.495 0 0 0 1.324 3.922 6.28 6.28 0 0 0 3.4 2.274 6.174 6.174 0 0 0 4.054-.324 6.33 6.33 0 0 0 3.178-3.123v-.009a6.47 6.47 0 0 0 .595-2.524v-.209c0-.21-.009-.416-.029-.62l.03.026c.098.082.196.167.284.255.088-.15.181-.295.281-.436a7.53 7.53 0 0 1 .151 1.508"/><path fill="#F69220" d="M120.537 99.659v.209a5.988 5.988 0 0 1-.595 2.524v.009a6.41 6.41 0 0 1-2.006 2.454 6.178 6.178 0 0 1-6.537.505 6.333 6.333 0 0 1-2.497-2.361 6.512 6.512 0 0 1-.917-3.63c0-.058.006-.117.01-.175v-.013c0-.056.008-.113.014-.168 0-.038.008-.075.012-.113a7.953 7.953 0 0 1 .116-.705l.041-.172.025-.09c.016-.056.031-.113.049-.169a5.91 5.91 0 0 1 .114-.341l.061-.165c.021-.054.039-.092.057-.138a6.436 6.436 0 0 1 .957-1.582c.036-.045.074-.089.111-.132.022-.026.044-.052.069-.077.024-.025.045-.051.068-.076.103-.112.211-.22.323-.324.09-.086.184-.168.279-.247l.006-.006-.036.07a7.682 7.682 0 0 0-.726 2.664 8.99 8.99 0 0 0-.035.776c0 3.351 1.929 6.066 4.314 6.066h.029c.074 0 .147.007.222.007a3.77 3.77 0 0 0 2.686-1.135c.353-.36.633-.787.824-1.257a3.94 3.94 0 0 0 .289-1.483v-.107a3.893 3.893 0 0 0-1.169-2.69 6.202 6.202 0 0 1 3.792 1.422l.033.025c.019.2.03.411.03.621"/><path fill="#F69220" d="M120.569 99.66v.21a6.08 6.08 0 0 1-.605 2.55 6.473 6.473 0 0 1-2.015 2.464 6.216 6.216 0 0 1-4.613 1.149 6.291 6.291 0 0 1-4.092-2.455 6.532 6.532 0 0 1-1.257-4.67 6.475 6.475 0 0 1 2.29-4.243l.062-.051-.037.068-.037.07a6.414 6.414 0 0 0-2.194 4.204 6.471 6.471 0 0 0 1.271 4.583 6.232 6.232 0 0 0 4.029 2.407 6.16 6.16 0 0 0 4.541-1.109 6.419 6.419 0 0 0 1.997-2.443c.38-.786.585-1.648.599-2.524v-.21c0-.2-.01-.412-.031-.617v-.028l.033.025.03.026c.018.2.029.4.029.594Z"/><path fill="#EA2227" d="M118.85 95.669s-5.131-.987-7.542 3.562a6.296 6.296 0 0 1 1.452-2.841 6.126 6.126 0 0 1 2.641-1.736l-.726-1.383a5.187 5.187 0 0 1 1.922-.928 5.136 5.136 0 0 1 2.126-.072l.127 3.398Z"/><path fill="#F69220" d="M112.488 98.094s2.049-2.733 6.736-2.022l-.057-1.593a5.585 5.585 0 0 1 3.537 1.33l-1.951 3a5.664 5.664 0 0 0-1.897-1.24 5.566 5.566 0 0 0-2.221-.389 8.993 8.993 0 0 0-4.153.911M110.47 100.566s-2.343-5.211 3.1-8.566l1.297 2.437a6.055 6.055 0 0 0-1.825 1.142 8.254 8.254 0 0 0-2.573 4.987"/><path fill="#EA2227" d="M131.037 96.03h-6.149a.197.197 0 0 0-.138.059.2.2 0 0 0-.058.141v.484a.201.201 0 0 0 .121.185c.024.01.05.015.075.015h4.581v2.589a4.455 4.455 0 0 0-.436-.544 2.42 2.42 0 0 0-.775-.606 2.367 2.367 0 0 0-.946-.244 1.45 1.45 0 0 0-.694.194 1.486 1.486 0 0 0-.521.506 2.195 2.195 0 0 0-.427 1.2c-.02.499.11.991.371 1.413a1.714 1.714 0 0 0 1.514.769c.317.022.63-.085.871-.297.241-.211.391-.512.416-.835a.986.986 0 0 0-.53-.884l-.337-.195v.4a.418.418 0 0 1-.011.079.437.437 0 0 0-.009.05.627.627 0 0 1-.551.365.83.83 0 0 1-.594-.243.587.587 0 0 1-.132-.413.857.857 0 0 1 .196-.51.642.642 0 0 1 .533-.269c.314-.001.622.083.893.243.271.16.496.392.65.67.317.46.494 1.006.507 1.568l.014 1.306.904.567c.03.019.064.029.099.03a.197.197 0 0 0 .173-.1.202.202 0 0 0 .027-.102v-6.7h.363a.195.195 0 0 0 .139-.059.202.202 0 0 0 .058-.141v-.484a.233.233 0 0 0-.013-.079.216.216 0 0 0-.042-.067.209.209 0 0 0-.065-.045.191.191 0 0 0-.077-.016Z"/><path fill="#EA2227" d="M143.326 96.03h-7.8a.193.193 0 0 0-.138.059.202.202 0 0 0-.058.141v.88a3.07 3.07 0 0 0-.904-.818 3.016 3.016 0 0 0-1.146-.396 2.25 2.25 0 0 0-1.477.453 1.453 1.453 0 0 0-.453.511 1.498 1.498 0 0 0-.174.666c0 1.394 1.528 1.378 1.905 1.168a.488.488 0 0 1 .253-.088.408.408 0 0 1 .403.287c.018.057.024.117.018.177 0 .324-.453.6-.989.6a.66.66 0 0 1-.611-.265l-.238-.368-.161.41a.984.984 0 0 0-.087.37 1.16 1.16 0 0 0 .455.885c.275.238.626.366.987.362a1.653 1.653 0 0 0 1.372-.645c.263-.349.401-.778.392-1.218a1.46 1.46 0 0 0-.294-.827 1.066 1.066 0 0 0-.891-.547 1.79 1.79 0 0 0-.433.088c-.069.019-.174.049-.196.051a.339.339 0 0 1-.222-.118.429.429 0 0 1-.122-.3.798.798 0 0 1 .289-.529.768.768 0 0 1 .571-.162h.025c.413.03.799.22 1.078.53.264.247.486.536.658.856v4.942l.907.547a.192.192 0 0 0 .279-.095.207.207 0 0 0 .015-.077v-6.641h1.39v4.3l1.107.453a.195.195 0 0 0 .204-.034.2.2 0 0 0 .066-.126l.005-.033a3.455 3.455 0 0 1 .504-1.54 3.382 3.382 0 0 1 1.142-1.129v.234c0 .174.012.642.023.9.003.113.012.227.026.339a7.48 7.48 0 0 0 .227 1.8c.294 1.069.814 1.306 1.198 1.317h.025a.697.697 0 0 0 .509-.174.545.545 0 0 0 .153-.4.987.987 0 0 0-.088-.461l-.083-.155-.168.041a.89.89 0 0 1-.276.044h-.032a.151.151 0 0 1-.092-.023c-.059-.032-.173-.137-.262-.476a4.049 4.049 0 0 1-.09-.776c0-1.386.282-2.436.717-2.675l.023-.011a.2.2 0 0 0 .099-.119c.008-.025.01-.052.008-.079a.223.223 0 0 0-.023-.076l-.013-.025a1.961 1.961 0 0 0-.546-.59 1.915 1.915 0 0 0-.733-.317l-.048-.013-.048.009a4.245 4.245 0 0 0-1.807 1.025c-.188.161-.363.318-.524.474v-1.712h4.195a.192.192 0 0 0 .139-.059.208.208 0 0 0 .043-.065.221.221 0 0 0 .015-.076v-.483a.204.204 0 0 0-.059-.14.195.195 0 0 0-.139-.058Z"/><path fill="#231F20" d="M125.311 105.616v.385l.322-.132.098.093a.803.803 0 0 1 .009.11.456.456 0 0 1-.105.317.392.392 0 0 1-.304.122.467.467 0 0 1-.356-.174 1.04 1.04 0 0 1-.205-.36l.089-.06c.113.321.274.481.482.48a.246.246 0 0 0 .107-.024.26.26 0 0 0 .089-.065.287.287 0 0 0 .085-.208.286.286 0 0 0-.019-.1l-.294.13-.114-.092v-.422h-.513v-.1h1.134v.1h-.505Z"/><path fill="#231F20" d="M126.037 105.616v.892h-.114v-.892h-.143v-.1h.393v.1h-.136Z"/><path fill="#231F20" d="M126.789 105.616v.062c.09 0 .178.027.253.077a.247.247 0 0 1 .096.091.248.248 0 0 1 .038.127.214.214 0 0 1-.082.174.276.276 0 0 1-.182.062h-.027v-.112h.059a.099.099 0 0 0 .051-.004.106.106 0 0 0 .07-.07c.006-.016.008-.034.006-.051 0-.1-.098-.16-.281-.177v.719h-.107a.891.891 0 0 0-.196-.26.43.43 0 0 0-.281-.132l-.035-.137c.067-.049.233-.151.5-.307v-.058h-.542v-.1h1.12v.1h-.465l.005-.004Zm-.114.188a.577.577 0 0 0-.162.1l-.147.126c.06.036.115.082.16.137l.149.173v-.537.001ZM128.766 105.342a.949.949 0 0 0-.491-.185.428.428 0 0 0-.282.087.329.329 0 0 0-.116.272h.12v.1h-.114v.889h-.116v-.889h-.122v-.1h.122a.427.427 0 0 1 .151-.35.547.547 0 0 1 .364-.117.713.713 0 0 1 .287.063c.09.043.177.093.259.15l-.062.08Z"/><path fill="#231F20" d="M128.858 105.617v.894h-.105a.793.793 0 0 0-.306-.257.887.887 0 0 0-.382-.13l-.037-.138c.108-.073.223-.132.345-.177l.374-.145v-.047h-.796v-.1h1.027v.1h-.12Zm-.111.178a5.4 5.4 0 0 0-.529.232c.194.069.373.174.529.31v-.542Z"/><path fill="#231F20" d="M128.935 105.516h1.098v.1h-1.098v-.1Zm.625.987a.467.467 0 0 1-.346-.172.88.88 0 0 1-.196-.355l.068-.073c.036.117.093.227.167.323a.39.39 0 0 0 .299.172.253.253 0 0 0 .203-.095.337.337 0 0 0 .074-.22.375.375 0 0 1-.224.082.274.274 0 0 1-.19-.073.24.24 0 0 1-.085-.185.246.246 0 0 1 .061-.174.222.222 0 0 1 .169-.064.205.205 0 0 1 .13.04.145.145 0 0 1 .04.052c.009.02.013.043.011.065a.158.158 0 0 1-.019.064.15.15 0 0 1-.043.051l-.077-.059a.069.069 0 0 0 .029-.027.076.076 0 0 0 .01-.039c0-.038-.023-.057-.07-.057a.117.117 0 0 0-.05.009.142.142 0 0 0-.043.029.136.136 0 0 0-.036.1c0 .022.004.044.012.064a.17.17 0 0 0 .157.099.324.324 0 0 0 .242-.115l.106.112a.484.484 0 0 1-.106.315.351.351 0 0 1-.132.103.35.35 0 0 1-.162.033"/><path fill="#231F20" d="M130.263 105.616v.892h-.114v-.892h-.142v-.1h.392v.1h-.136Z"/><path fill="#231F20" d="M130.829 106.574a.356.356 0 0 1-.256-.065.538.538 0 0 1-.06-.649c.056-.087.119-.168.188-.244h-.342v-.1h.549v.1a.598.598 0 0 0-.248.2.491.491 0 0 0-.116.3c0 .24.098.36.294.36a.147.147 0 0 0 .087-.036v.116a.196.196 0 0 1-.098.022"/><path fill="#231F20" d="M131.567 105.616v.88h-.114v-.587a.289.289 0 0 0-.049-.105.314.314 0 0 0-.272-.177.178.178 0 0 0-.119.058 1.959 1.959 0 0 1-.073.068.35.35 0 0 1 .123-.028.233.233 0 0 1 .14.042c.02.014.037.033.048.056a.161.161 0 0 1 .016.072.306.306 0 0 1-.077.2.396.396 0 0 1-.175.13l-.074-.1a.364.364 0 0 0 .137-.092.197.197 0 0 0 .053-.062.216.216 0 0 0 .025-.078c0-.028-.031-.05-.098-.067a.454.454 0 0 0-.127-.019.114.114 0 0 0-.04.008l-.057-.11a1.24 1.24 0 0 1 .126-.125.258.258 0 0 1 .162-.057.384.384 0 0 1 .325.205v-.212h.238v.1h-.118Z"/><path fill="#231F20" d="M132.545 105.617v.894h-.105a.802.802 0 0 0-.294-.255.856.856 0 0 0-.375-.125l-.037-.137c.22-.136.454-.246.697-.33v-.047h-.775v-.1h.994v.1H132.545Zm-.112.178c-.178.063-.35.143-.513.24.189.064.363.166.513.3v-.54Zm-.294.748a.613.613 0 0 0-.165-.113l.049-.094a.534.534 0 0 1 .182.135l-.066.072ZM134.172 105.342a.949.949 0 0 0-.491-.185.427.427 0 0 0-.283.087.329.329 0 0 0-.117.272h.12v.1h-.12v.889h-.116v-.889h-.116v-.1h.122a.414.414 0 0 1 .035-.193.41.41 0 0 1 .116-.157.547.547 0 0 1 .364-.117.71.71 0 0 1 .287.063 1.8 1.8 0 0 1 .259.15l-.06.08Z"/><path fill="#231F20" d="M133.971 105.616v.385l.321-.132.098.093a.803.803 0 0 1 .009.11.456.456 0 0 1-.105.317.392.392 0 0 1-.304.122.46.46 0 0 1-.356-.174 1.056 1.056 0 0 1-.205-.36l.09-.06c.113.321.274.481.482.48a.25.25 0 0 0 .107-.024.26.26 0 0 0 .089-.065.29.29 0 0 0 .065-.308l-.294.13-.114-.092v-.422h-.512v-.1h1.129v.1h-.5Z"/><path fill="#231F20" d="M135.559 105.342a.945.945 0 0 0-.49-.185.428.428 0 0 0-.284.087.329.329 0 0 0-.116.272h.119v.1h-.119v.889h-.117v-.889h-.122v-.1h.122a.441.441 0 0 1 .151-.35.55.55 0 0 1 .366-.117.709.709 0 0 1 .286.063c.09.043.177.093.259.15l-.055.08Z"/><path fill="#231F20" d="M135.472 105.616a.238.238 0 0 0 .095.137.231.231 0 0 0 .159.04.45.45 0 0 0 .052 0l.087.107a.829.829 0 0 0-.098.314.565.565 0 0 0 .054.3l-.078.042a.484.484 0 0 1-.08-.277c0-.061.006-.122.019-.182l.052-.19a.51.51 0 0 1-.237-.088.318.318 0 0 1-.142-.205.365.365 0 0 0-.181.288c0 .067.026.1.08.1a.178.178 0 0 0 .089-.027.163.163 0 0 0 .067-.063h.116c.03.059.043.126.038.192 0 .227-.117.34-.35.34a.304.304 0 0 1-.135-.035 1.574 1.574 0 0 1-.118-.072 3.804 3.804 0 0 1-.151-.285l.065-.063c.039.105.094.203.163.29l.006-.008.079.04a.174.174 0 0 0 .083.024.264.264 0 0 0 .171-.053.19.19 0 0 0 .074-.162.175.175 0 0 0-.029-.1.255.255 0 0 1-.08.066.228.228 0 0 1-.099.026.162.162 0 0 1-.138-.062.244.244 0 0 1-.048-.155.482.482 0 0 1 .117-.278h-.442v-.1h1.216v.1l-.476-.001Z"/><path fill="#231F20" d="M136.128 105.616v.779h.063a.55.55 0 0 0 .288-.077.27.27 0 0 0 .172-.23c0-.1-.048-.155-.144-.155a.39.39 0 0 0-.146.06l-.045-.1a.386.386 0 0 1 .237-.072.19.19 0 0 1 .091.02.185.185 0 0 1 .073.06.307.307 0 0 1 .052.182.343.343 0 0 1-.141.269.616.616 0 0 1-.277.133 1.727 1.727 0 0 1-.337.024v-.892h-.098v-.1h.686v-.031a.21.21 0 0 0-.021-.092.217.217 0 0 0-.06-.071.277.277 0 0 0-.175-.058.78.78 0 0 0-.339.117l-.034-.082a.72.72 0 0 1 .385-.128.354.354 0 0 1 .253.1.333.333 0 0 1 .08.112.333.333 0 0 1 .026.136h.13v.1l-.719-.004Z"/><path fill="#231F20" d="M137.082 105.616v.892h-.114v-.892h-.142v-.1h.387v.1h-.131Z"/><path fill="#231F20" d="M138.224 105.617v.892h-.107v-.184c0-.21-.052-.315-.157-.315a.121.121 0 0 0-.098.057.205.205 0 0 0-.042.111h-.132a.226.226 0 0 0-.042-.12.135.135 0 0 0-.047-.045.122.122 0 0 0-.062-.016.126.126 0 0 0-.11.061.227.227 0 0 0-.036.132c0 .11.066.165.196.165h.041l-.038.116h-.044a.275.275 0 0 1-.11-.02.274.274 0 0 1-.093-.065.303.303 0 0 1-.079-.213.303.303 0 0 1 .076-.214.262.262 0 0 1 .206-.082.26.26 0 0 1 .217.152c.066-.1.134-.152.204-.152.069 0 .107.047.146.142v-.4h-.94v-.1h1.158v.1h-.112l.005-.002ZM138.916 106.11c0 .065.014.129.041.188a.157.157 0 0 0 .14.114.169.169 0 0 0 .085-.025l.036.1a.22.22 0 0 1-.114.032c-.191 0-.286-.153-.286-.459a.8.8 0 0 1 .319-.546h.166v.1a.409.409 0 0 0-.277.177.513.513 0 0 0-.11.318"/><path fill="#231F20" d="M140.267 105.617v.892h-.107v-.184c0-.21-.053-.315-.157-.315a.121.121 0 0 0-.098.057.213.213 0 0 0-.042.111h-.124a.218.218 0 0 0-.042-.12.126.126 0 0 0-.045-.044.127.127 0 0 0-.125-.003.135.135 0 0 0-.05.045.234.234 0 0 0-.035.132c0 .11.065.165.196.165h.041l-.038.116h-.044a.275.275 0 0 1-.11-.02.274.274 0 0 1-.093-.065.33.33 0 0 1-.077-.213.33.33 0 0 1 .077-.214.268.268 0 0 1 .205-.082c.046.003.09.019.128.046a.267.267 0 0 1 .088.106c.065-.1.134-.152.205-.152.07 0 .105.047.145.142v-.4h-.941v-.1h1.16v.1h-.117Z"/><path fill="#231F20" d="M141.247 105.616v.892h-.114v-.068a.402.402 0 0 0-.148-.279.42.42 0 0 0-.28-.145.163.163 0 0 0-.109.042.13.13 0 0 0-.046.1c0 .02.003.039.011.057a.147.147 0 0 0 .138.09.186.186 0 0 0 .074-.016l.036.11a.33.33 0 0 1-.142.025.213.213 0 0 1-.168-.078.275.275 0 0 1-.067-.182.26.26 0 0 1 .074-.19.242.242 0 0 1 .183-.078.546.546 0 0 1 .444.3v-.58h-.795v-.1h1.007v.1h-.098Z"/><path fill="#231F20" d="M141.782 106.574a.356.356 0 0 1-.256-.065.528.528 0 0 1-.142-.377.523.523 0 0 1 .083-.272c.055-.086.117-.167.186-.243h-.342v-.1h.549v.1a.607.607 0 0 0-.249.2.493.493 0 0 0-.116.3c0 .24.098.36.294.36a.147.147 0 0 0 .088-.036v.116a.196.196 0 0 1-.098.022"/><path fill="#231F20" d="M141.908 105.617v.4c.143-.098.295-.181.454-.248l.112.149a.986.986 0 0 0-.086.334c.003.087.02.173.051.254l-.084.04a.828.828 0 0 1-.064-.245 2.09 2.09 0 0 1 .036-.37c-.16.075-.308.174-.44.294l-.098-.092v-.512h-.088v-.1h.849v.1h-.646l.004-.004Z"/><path fill="#231F20" d="M143.418 105.616v.892h-.114v-.068a.403.403 0 0 0-.148-.279.423.423 0 0 0-.281-.145.16.16 0 0 0-.142.087.13.13 0 0 0-.012.055.137.137 0 0 0 .042.105.148.148 0 0 0 .107.042.194.194 0 0 0 .075-.016l.033.11a.328.328 0 0 1-.142.025.212.212 0 0 1-.166-.078.276.276 0 0 1-.068-.182.26.26 0 0 1 .073-.19.247.247 0 0 1 .184-.078.541.541 0 0 1 .445.3v-.58h-.795v-.1h1.009v.1h-.1Z"/><path fill="#EC1C24" d="M113.566 99.161s-.439.1-.427-.129c.006-.077.051-.106.098-.1 0-.042-.085-.163.106-.21a.967.967 0 0 0 .14-.227c.019-.058.072-.138.245-.1a.777.777 0 0 1 .393.258c.098 0 .207.019.169.04-.038.021-.061.06-.053.066.008.006.063.038-.114.042.005.038.04.048.07.066.031.018-.009.042 0 .05s.025.1-.065.06c-.089-.04-.098-.066-.12-.062-.023.004-.089.014-.08.039.01.025.098.083-.013.1-.023.021.035.054-.008.071-.043.017-.231.167-.321.2-.088 0-.116-.025-.109-.062.008-.037.047-.065.104-.071 0-.025.007-.044-.008-.042M113.526 99.639c-.043 0-.167-.085-.098-.133a3.32 3.32 0 0 1 .425-.26c.065-.019.151.069.071.136a5.701 5.701 0 0 1-.392.258M113.981 99.424c.01-.093.027-.186.049-.277 0-.038.149-.054.115.108-.034.162-.156.219-.164.169Z"/><path fill="#EC1C24" d="M114.185 99.075a7.07 7.07 0 0 1 .883 0 1.16 1.16 0 0 1 .279.871c-.068.391-.186.491-.714.555a2.158 2.158 0 0 0-.079-.542c-.052-.089-.229-.294-.31-.291 0 .091-.017.363-.017.363s-.26.019-.294-.036c-.005-.1 0-.408 0-.408.094-.08.18-.169.255-.266.039.022.045.149.338.121-.005-.029-.348.007-.338-.366M113.874 99.44s-.259.223-.31.265c-.028.072-.057.3.28.3a7.06 7.06 0 0 0 .03-.565Z"/><path fill="#EC1C24" d="M113.253 99.779c-.079 0-.147-.021-.138-.088a.183.183 0 0 1 .196-.119c.073.016.196.05.196.336a.642.642 0 0 0 .414.186c.196.011.317-.014.317.047v.388a1.93 1.93 0 0 1-.826-.43.26.26 0 0 1-.06-.096.283.283 0 0 1-.016-.112c-.005-.064-.049-.112-.076-.113M113.075 99.824c-.098 0-.383.242-.172.343.04-.036.077-.076.112-.118 0 0-.052.14.059.175.112.035.069-.07.13-.066.034.057.043.092.098.092.055 0 .072-.171 0-.268-.073-.097-.121-.154-.228-.158M114.289 99.856v.767s.251-.079.276-.143c-.01-.133-.051-.629-.276-.624ZM113.689 100.362c.152.106.312.2.479.28-.027.034-.151.2-.196.185a1.107 1.107 0 0 1-.285-.466M112.651 100.801h-.379l-.026-.148h.405v.148ZM115.228 100.79h1.403v-.216h-1.682l.279.216ZM114.629 100.56c.031-.032.223.129.168.159a3.629 3.629 0 0 1-.628.236c-.051-.018-.035-.153.016-.18.157-.05.307-.123.444-.215Z"/><path fill="#EC1C24" d="M114.048 100.922c-.063-.033-.399.3-.252.324.202.032.402.078.598.138.083-.038.162-.109.147-.15.058 0 .156.094.231.059.184-.112.357-.243.516-.389a.771.771 0 0 0-.341-.177c-.074 0-.629.337-.901.2"/><path fill="#EC1C24" d="M113.872 101.343c.184.067.374.115.568.144.107-.021.128-.127.187-.121.06.006.09.062.191 0 .112-.078.216-.167.311-.265.006.068 0 .253-.392.433s-1.299.445-1.322.572a.423.423 0 0 0 .224-.065.405.405 0 0 1 .116.362c-.024.2-.174.545-.174.642 0 .097-.008.524 0 .568.009.044.079.289-.037.271a.74.74 0 0 0-.23-.012c-.046.009-.139.085-.22.074-.081-.011-.219-.053-.214-.094.006-.041.098-.041.174-.071.075-.03.13-.118.28-.174-.006-.1-.05-.844-.05-1a1.914 1.914 0 0 1 .016-.618c.068-.138.415-.648.575-.641"/><path fill="#EC1C24" d="M114.425 101.789c-.01.048.263.722.38.733a10.98 10.98 0 0 1 1.412-.163c.061.085.196.248.186.338.012.077.016.154.011.232a.157.157 0 0 0 .15-.085 4.03 4.03 0 0 0 .013-.411c.008-.052.138-.318-.038-.313a4.766 4.766 0 0 1-.844-.041 1.53 1.53 0 0 0-.623-.066.494.494 0 0 0-.197.244c-.038.009-.05-.03-.011-.145a2.15 2.15 0 0 0 .157-.642c-.134.048-.589.319-.589.319M113.807 100.727a.27.27 0 0 0 .061.113l-.872-.057s-.098-.064-.061-.079l.872.023Z"/><path fill="#EC1C24" d="M112.85 100.653h.872a.74.74 0 0 1-.09-.166c-.153 0-.804.013-.804.013s-.098-.007-.098.167c0 .047.07.117.116-.013M112.014 100.803h.178s.058-.025 0-.1c-.058-.075-.17-.109-.089-.232-.084-.015-.208-.041-.187.232h-.087a.213.213 0 0 0-.23-.156 2.963 2.963 0 0 0-.695.209c.229.067.462.119.698.156a.323.323 0 0 0 .233-.141h.07a.652.652 0 0 0 .067.153v.173a.124.124 0 0 0-.073.133c.012.1.067.1.083.1.017 0 .041-.032.11-.032a.147.147 0 0 0 .009-.105.148.148 0 0 0-.064-.083c0-.059-.006-.124-.006-.124s.073-.047.064-.089c-.009-.042-.083-.04-.083-.1M113.074 101.661h.004a.231.231 0 0 0 .081-.124v-.007s-.008-.406-.008-.523c0-.134-.222-.221-.23-.225l-.014-.005-.011.01a.242.242 0 0 1-.121.064.15.15 0 0 1-.078-.015.168.168 0 0 1-.063-.049l-.007-.007h-.009c-.179 0-.265.219-.269.228v.008a4.341 4.341 0 0 0 0 .484c.017.05.044.097.078.136-.035.128-.216.822.027.91v.119h.588v-.125c.222-.1.081-.7.033-.876m-.676-.642c.011-.026.084-.187.214-.194.02.024.046.042.075.054a.197.197 0 0 0 .09.016.265.265 0 0 0 .142-.067c.061.027.188.1.188.175 0 .112.007.481.008.521a.195.195 0 0 1-.054.089h-.116v-.227h-.392v.221h-.08a.37.37 0 0 1-.071-.119 4.042 4.042 0 0 1 0-.467m.407 1.424h-.106a.047.047 0 0 1-.033-.014.047.047 0 0 1 0-.067.047.047 0 0 1 .033-.014h.106c.012 0 .024.005.033.014a.051.051 0 0 1 .013.034.05.05 0 0 1-.013.033.047.047 0 0 1-.033.014Zm.219.049-.287-.327-.264.334c-.177-.059-.064-.616 0-.848l.552.009c.063.23.165.749 0 .832"/><path fill="#EC1C24" d="M112.944 101.891a.118.118 0 0 0-.018-.163h-.344c-.109 0-.074.156-.074.156l.217.19a.772.772 0 0 0 .219-.183ZM112.801 102.111l.206.253-.03-.4c-.049.008-.176.144-.176.144M112.499 101.967l-.029.4.205-.253s-.127-.136-.176-.144M112.907 101.312h.036v-.036a.036.036 0 0 0-.011-.026.034.034 0 0 0-.025-.011h-.325a.036.036 0 0 0-.025.011.036.036 0 0 0-.011.026v.036h.361ZM112.434 102.697h-.038v.04c0 .01.004.02.011.028a.04.04 0 0 0 .027.012h.606a.036.036 0 0 0 .028-.012.04.04 0 0 0 .011-.028v-.04h-.645Z"/></g><g clip-path="url(#clip8_124_1303)"><path fill="#fff" d="M97.912 40H52.088C50.935 40 50 40.954 50 42.13v35.74c0 1.176.935 2.13 2.088 2.13h45.824c1.153 0 2.088-.954 2.088-2.13V42.13c0-1.176-.935-2.13-2.088-2.13Z"/><path stroke="#9DADBC" stroke-miterlimit="10" stroke-opacity=".36" d="M97.912 40.5H52.088c-.882 0-1.598.73-1.598 1.63v35.74c0 .9.716 1.63 1.598 1.63h45.824c.882 0 1.598-.73 1.598-1.63V42.13c0-.9-.716-1.63-1.598-1.63Z"/><path fill="#77787B" d="M65.785 72.454h-.579v-.352h1.581v.352h-.579v1.51h-.423v-1.51ZM67.533 72.567a.733.733 0 0 1 .29-.056v.386h-.09a.384.384 0 0 0-.278.102c-.066.068-.1.17-.1.295v.67h-.4v-1.43h.39v.192a.373.373 0 0 1 .188-.159ZM69.482 72.533v1.432h-.39v-.182a.536.536 0 0 1-.189.136.588.588 0 0 1-.245.046c-.19 0-.334-.057-.434-.16-.112-.102-.156-.272-.156-.477v-.795h.4v.75c0 .227.09.34.28.34.1 0 .177-.033.233-.101a.43.43 0 0 0 .09-.284v-.705h.411ZM69.995 73.93a1.004 1.004 0 0 1-.268-.113l.134-.295c.067.045.133.068.222.102.09.023.179.034.257.034.167 0 .256-.046.256-.125 0-.046-.023-.068-.067-.09a.75.75 0 0 0-.212-.046c-.11-.023-.211-.035-.278-.057a.429.429 0 0 1-.19-.125c-.055-.057-.077-.136-.077-.25 0-.09.022-.17.078-.239a.474.474 0 0 1 .223-.159c.1-.034.211-.056.345-.056.1 0 .2.011.3.034.1.022.178.056.245.09l-.133.296a.812.812 0 0 0-.401-.102.457.457 0 0 0-.2.034c-.045.022-.067.057-.067.09 0 .046.022.08.066.091a.754.754 0 0 0 .223.046c.112.023.212.045.278.057a.351.351 0 0 1 .19.125c.055.056.078.136.078.238a.36.36 0 0 1-.078.239.475.475 0 0 1-.223.159c-.1.034-.223.056-.356.056a.875.875 0 0 1-.346-.034ZM72.144 73.885a.344.344 0 0 1-.145.068.953.953 0 0 1-.178.023.575.575 0 0 1-.39-.125c-.09-.09-.134-.216-.134-.386v-.59h-.222v-.319h.211v-.352h.401v.352h.345v.318h-.345v.58c0 .056.011.102.045.136.033.034.078.045.133.045a.27.27 0 0 0 .167-.057l.112.307ZM74.337 73.556h-.846l-.156.397h-.434l.813-1.851h.412l.813 1.851h-.446l-.156-.397Zm-.133-.318-.29-.716-.29.716h.58Z"/><path fill="#77787B" d="m75.897 73.953-.312-.443-.323.443h-.446l.535-.715-.524-.705h.457l.3.42.301-.42h.435l-.524.693.546.727h-.445ZM76.576 72.26a.227.227 0 0 1-.067-.158c0-.068.022-.125.067-.16a.25.25 0 0 1 .178-.067c.078 0 .134.022.178.068.045.045.067.09.067.159a.234.234 0 0 1-.067.17.25.25 0 0 1-.178.068.324.324 0 0 1-.178-.08Zm-.023.273h.401v1.431h-.4v-1.43ZM78.402 72.67c.111.102.178.26.178.477v.818h-.378v-.182c-.078.136-.223.204-.424.204a.676.676 0 0 1-.278-.056.409.409 0 0 1-.178-.16.39.39 0 0 1-.067-.227c0-.136.044-.238.145-.318.1-.08.245-.113.456-.113h.323c0-.091-.022-.16-.078-.205-.055-.045-.133-.068-.245-.068a.758.758 0 0 0-.222.034.463.463 0 0 0-.179.102l-.144-.284a.7.7 0 0 1 .278-.124 1.08 1.08 0 0 1 .334-.046c.2-.011.368.045.479.148Zm-.345.977a.25.25 0 0 0 .111-.148v-.148h-.278c-.167 0-.245.057-.245.17 0 .057.022.091.055.126.034.034.1.045.168.045a.265.265 0 0 0 .189-.045ZM79.85 73.885a.343.343 0 0 1-.145.068.953.953 0 0 1-.178.023.575.575 0 0 1-.39-.125c-.09-.08-.134-.216-.134-.386v-.59h-.211v-.319h.211v-.352h.401v.352h.345v.318h-.345v.58c0 .056.011.102.045.136.033.034.078.045.133.045a.27.27 0 0 0 .167-.057l.1.307ZM81.141 72.67c.112.102.178.26.178.477v.818h-.378v-.182c-.078.136-.223.204-.423.204a.676.676 0 0 1-.279-.056.409.409 0 0 1-.178-.16.39.39 0 0 1-.067-.227c0-.136.045-.238.145-.318.1-.08.245-.113.457-.113h.323c0-.091-.023-.16-.078-.205-.056-.045-.134-.068-.245-.068a.758.758 0 0 0-.223.034.463.463 0 0 0-.178.102l-.145-.284a.7.7 0 0 1 .278-.124 1.08 1.08 0 0 1 .335-.046.676.676 0 0 1 .478.148Zm-.345.977a.25.25 0 0 0 .112-.148v-.148h-.279c-.167 0-.245.057-.245.17 0 .057.022.091.056.126.044.034.1.045.167.045a.28.28 0 0 0 .19-.045ZM83.658 72.181a.633.633 0 0 1 .379.602c0 .137-.034.25-.1.352a.647.647 0 0 1-.279.239.973.973 0 0 1-.423.08h-.368v.51h-.423v-1.85h.79c.157-.012.302.01.424.067Zm-.156.83a.297.297 0 0 0 .1-.24.296.296 0 0 0-.1-.238c-.067-.056-.167-.08-.29-.08h-.345v.648h.346a.444.444 0 0 0 .29-.09ZM85.34 72.67c.11.102.178.26.178.477v.818h-.379v-.182c-.078.136-.223.204-.423.204a.675.675 0 0 1-.278-.056.408.408 0 0 1-.179-.16.389.389 0 0 1-.066-.227c0-.136.044-.238.144-.318.1-.08.245-.113.457-.113h.323c0-.091-.022-.16-.078-.205-.056-.045-.134-.068-.245-.068a.758.758 0 0 0-.223.034.462.462 0 0 0-.178.102l-.145-.284a.7.7 0 0 1 .279-.124 1.08 1.08 0 0 1 .334-.046c.2-.011.367.045.478.148Zm-.346.977a.25.25 0 0 0 .112-.148v-.148h-.279c-.167 0-.245.057-.245.17 0 .057.023.091.056.126.044.034.1.045.167.045a.251.251 0 0 0 .19-.045ZM87.244 72.533l-.635 1.511c-.067.16-.145.284-.234.352a.568.568 0 0 1-.345.102.664.664 0 0 1-.39-.125l.145-.295a.957.957 0 0 0 .111.068c.045.012.078.023.123.023.055 0 .1-.011.133-.045a.26.26 0 0 0 .09-.137v-.011l-.602-1.443h.423l.39.966.39-.966h.4Z"/><path fill="url(#paint2_linear_124_1303)" d="M82.89 70.989H69.182c-2.406 0-4.366-1.988-4.366-4.453V52.554c0-2.454 1.95-4.441 4.366-4.441H82.89c2.405 0 4.365 1.987 4.365 4.452v13.983c-.011 2.453-1.96 4.44-4.365 4.44Z"/><path fill="url(#paint3_linear_124_1303)" d="M77.645 49.714c-6.548 0-11.86 5.418-11.86 12.097a12.18 12.18 0 0 0 4.12 9.166H82.89c2.405 0 4.365-1.987 4.365-4.452V54.723c-2.16-3.032-5.657-5.009-9.61-5.009Z"/><path fill="url(#paint4_linear_124_1303)" d="M74.26 69.49c6.359 0 11.514-5.259 11.514-11.745C85.774 51.258 80.619 46 74.26 46c-6.36 0-11.515 5.258-11.515 11.745 0 6.486 5.155 11.744 11.515 11.744Z"/><path fill="#fff" d="M84.75 60.997c.784-4.91-2.483-9.538-7.297-10.338-4.813-.8-9.35 2.533-10.135 7.443-.783 4.91 2.484 9.538 7.297 10.337 4.814.8 9.351-2.532 10.135-7.442Z"/><path fill="url(#paint5_linear_124_1303)" d="M71.62 60.914c-.01.056-.01.09-.01.113 0 .182.1.273.289.273.1 0 .222-.034.345-.091l.178 1.079c-.267.148-.612.227-1.035.227-.435 0-.78-.102-1.025-.318-.245-.216-.379-.511-.379-.897 0-.125.011-.25.045-.386l.2-.989h-.534l.234-1.18h.523l.212-1.091h1.58l-.21 1.09h.779l-.234 1.181h-.78l-.178.989Z"/><path fill="url(#paint6_linear_124_1303)" d="m77.645 58.54-.757 3.907h-1.493l.067-.352a1.451 1.451 0 0 1-1.793.216 1.663 1.663 0 0 1-.59-.625c-.156-.273-.223-.59-.223-.965 0-.42.09-.795.279-1.136.19-.341.434-.614.746-.807a1.885 1.885 0 0 1 1.013-.295c.512 0 .88.159 1.091.488l.09-.408h1.57v-.023Zm-3.04 2.533c.1.113.233.17.412.17.2 0 .367-.08.5-.239.135-.158.19-.374.19-.647a.648.648 0 0 0-.156-.443.516.516 0 0 0-.412-.17c-.2 0-.367.08-.5.238-.135.16-.19.375-.19.648 0 .193.055.34.156.443Z"/><path fill="url(#paint7_linear_124_1303)" d="M81.542 58.687c.245.148.435.352.59.625.156.273.223.59.223.966 0 .42-.089.795-.278 1.135-.19.341-.435.614-.746.807a1.886 1.886 0 0 1-1.014.295c-.512 0-.88-.159-1.09-.488l-.357 1.794h-1.582l1.036-5.281h1.492l-.067.352c.29-.284.635-.432 1.036-.432.267.012.512.08.757.227Zm-.98 2.318c.134-.16.19-.375.19-.648a.648.648 0 0 0-.156-.443.516.516 0 0 0-.412-.17c-.2 0-.368.08-.501.238-.134.16-.19.375-.19.648 0 .181.045.33.145.443.1.113.234.17.412.17.223 0 .39-.08.512-.239Z"/></g><g clip-path="url(#clip9_124_1303)"><path fill="#fff" d="M47.912 80H2.088C.935 80 0 80.954 0 82.13v35.74c0 1.176.935 2.13 2.088 2.13h45.824c1.153 0 2.088-.954 2.088-2.13V82.13c0-1.176-.935-2.13-2.088-2.13Z"/><path stroke="#9DADBC" stroke-miterlimit="10" stroke-opacity=".36" d="M47.912 80.5H2.088c-.882 0-1.598.73-1.598 1.63v35.74c0 .9.716 1.63 1.598 1.63h45.824c.882 0 1.598-.73 1.598-1.63V82.13c0-.9-.716-1.63-1.598-1.63Z"/><path fill="#DF1F2E" d="M13.975 88h9.023c1.29 0 2.036 1.038 1.765 2.353l-4.207 18.478c-.271 1.315-1.56 2.353-2.85 2.353H8.682c-1.289 0-2.035-1.038-1.764-2.353l4.207-18.478c.271-1.315 1.56-2.353 2.85-2.353Z"/><path fill="#15336F" d="M22.252 88h10.381c1.29 0 .678 1.038.407 2.353l-4.207 18.478c-.27 1.315-.203 2.353-1.492 2.353H16.96c-1.29 0-2.036-1.038-1.764-2.353l4.207-18.478c.339-1.315 1.56-2.353 2.85-2.353Z"/><path fill="#007C82" d="M32.226 88h9.092c1.289 0 2.035 1.038 1.764 2.353l-4.207 18.478c-.271 1.315-1.56 2.353-2.85 2.353h-9.091c-1.29 0-2.036-1.038-1.764-2.353l4.206-18.478c.34-1.315 1.629-2.353 2.85-2.353Z"/><path fill="#fff" fill-rule="evenodd" d="M30.733 105.371h.882l.272-.831h-.882l-.272.831Zm.679-2.284-.272.969s.34-.139.475-.208c.204-.069.475-.069.475-.069l.204-.692h-.882Zm.407-1.453-.272.969s.34-.139.475-.208c.204-.069.407-.069.407-.069l.204-.692h-.814Zm1.9 0-1.086 3.737h.271l-.203.761h-.272l-.067.208h-1.018l.068-.208h-2.104l.204-.692h.203l1.154-3.806.204-.762h1.085l-.136.416s.272-.208.543-.277c.272-.069 1.832-.069 1.832-.069l-.203.761h-.475v-.069Z" clip-rule="evenodd"/><path fill="#fff" d="M34.194 100.872h1.153v.416c0 .069.068.138.203.138h.204l-.203.692h-.611c-.543.069-.746-.208-.746-.484v-.762ZM34.33 104.263h-1.086l.203-.622h1.221l.204-.554h-1.221l.203-.692h3.393l-.204.692H35.89l-.136.554h1.154l-.204.622h-1.221l-.272.277h.475l.136.831c0 .069 0 .138.068.138 0 0 .203.069.271.069h.136l-.204.762H35.415c-.136 0-.204-.07-.272-.139-.067-.069-.203-.138-.203-.277l-.136-.83-.543.761c-.203.277-.407.415-.814.415h-.814l.204-.692h.339c.068 0 .136-.069.203-.069.068 0 .136-.069.136-.138l.814-1.108ZM22.388 102.533h2.917l-.203.692h-1.154l-.203.623h1.153l-.203.692H23.54l-.271.969c0 .139.271.139.407.139l.61-.07-.203.831h-1.357c-.136 0-.204 0-.271-.069-.136 0-.136-.07-.204-.139-.068-.069-.136-.138-.068-.277l.407-1.315h-.678l.203-.761h.679l.203-.623h-.678l.068-.692ZM24.355 101.288h1.154l-.204.761h-1.628l-.204.138c-.067.069-.067.07-.203.07-.068.069-.272.138-.543.138h-.543l.204-.692h.135c.136 0 .204 0 .272-.069.068 0 .136-.139.203-.208l.272-.554h1.153l-.067.416Z"/><path fill="#fff" fill-rule="evenodd" d="M26.662 102.464s.34-.277.882-.415h.882l.136-.415h-1.696l-.204.83Zm1.56.346h-1.628l-.135.346H28.087l.136-.346Zm-2.17-1.938h1.017l-.135.554s.339-.277.543-.346c.203-.069.746-.138.746-.138h1.628l-.543 1.868c-.067.346-.203.554-.27.623-.069.069-.137.208-.272.277-.136.069-.272.138-.407.138h-2.036l-.475 1.523c-.068.138-.068.207-.068.277 0 .069.068.069.136.069l.678-.069-.203.692H25.102c-.136 0-.272 0-.34-.07-.067-.069-.203-.138-.203-.207 0-.069.068-.208.068-.415l1.425-4.776Z" clip-rule="evenodd"/><path fill="#fff" d="m28.97 103.917-.069.485c-.067.138-.067.277-.203.346-.136.069-.272.208-.543.208h-.543v.484c0 .138 0 .138.068.138l.068.07h.746l-.203.761h-.611c-.407 0-.746 0-.882-.069-.136-.07-.136-.139-.136-.277l.068-2.007h.95v.415H28.087s.068-.069.068-.138l.068-.346h.746v-.07ZM14.992 93.882c-.068.139-.678 3.115-.678 3.115-.136.623-.204 1.038-.543 1.315a1.13 1.13 0 0 1-.679.207c-.407 0-.678-.207-.678-.623v-.138l.136-.83s.678-2.7.746-3.046v-.069h-1.56l-.068.208-.679 3.045.068.346-.136.83c0 .277.068.485.136.623.34.554 1.153.623 1.696.623.61 0 1.222-.138 1.629-.415.678-.415.882-1.107 1.017-1.661l.068-.277s.679-2.768.814-3.183v-.07c-.882.07-1.153 0-1.289 0ZM18.792 99.419h-1.154v-.07c.068-.207.068-.414.136-.622l.068-.277c.068-.415.204-.969.204-1.107 0-.07.067-.346-.204-.346-.136 0-.204.069-.34.138-.067.208-.203.9-.27 1.177-.136.623-.136.692-.204 1.038l-.068.069h-1.154v-.07c.068-.345.204-.76.272-1.106.203-1.039.271-1.385.34-1.938l.067-.07c.543-.069.678-.069 1.221-.207l.068.07-.204.414c.068-.069.204-.138.272-.207.271-.139.543-.208.746-.208.272 0 .543.07.61.346.137.277.069.554-.135 1.246v.415c-.136.692-.136.83-.271 1.315ZM20.624 99.419h-1.221c.067-.277.135-.346.135-.484.068-.07.068-.208.136-.485.068-.346.136-.623.136-.83.067-.208.067-.416.067-.623.272-.07.475-.07.611-.07.204 0 .34-.069.61-.138-.067.208-.135.415-.135.692-.068.208-.136.416-.136.692-.135.485-.135.623-.135.762 0 .138 0 .207-.068.484ZM23.541 97.827c0 .139-.135.554-.271.762a.372.372 0 0 1-.34.207c-.067 0-.27 0-.27-.346 0-.138 0-.346.067-.553.136-.554.271-.97.61-.97.272 0 .34.347.204.9Zm1.154 0c.135-.692.067-1.038-.136-1.245-.271-.277-.678-.416-1.086-.416-.271 0-.882 0-1.357.485-.339.346-.542.761-.61 1.176-.068.416-.204 1.246.475 1.523.203.069.542.138.746.138.543 0 1.086-.138 1.425-.553.407-.346.543-.9.543-1.108ZM35.822 99.488h-1.221v-.069c.135-.554.271-1.038.407-1.592.135-.692.203-.969.271-1.384l.068-.069c.543-.07.678-.07 1.29-.208v.07c-.137.415-.204.9-.34 1.314-.271.97-.34 1.454-.475 1.938Z"/><path fill="#fff" d="M35.008 97.827c0 .139-.136.554-.272.761-.067.139-.339.208-.475.208-.068 0-.271 0-.271-.346 0-.138 0-.346.068-.553.136-.554.271-.97.61-.97.34.07.475.416.34.9Zm1.085.07c.136-.693-.475-.07-.61-.277-.136-.346-.068-1.108-.679-1.385-.271-.069-.814 0-1.289.485-.34.346-.543.761-.61 1.177-.068.415-.204 1.245.474 1.522.204.07.407.138.611.138.678-.069 1.221-1.107 1.628-1.591.407-.346.475.138.475-.07ZM27.816 99.419h-1.154v-.07c.068-.207.068-.414.136-.622l.068-.277c.068-.346.203-.9.203-1.038 0-.07.068-.346-.203-.346-.136 0-.204.07-.34.138-.067.208-.203.9-.27 1.177-.137.623-.137.692-.204 1.038l-.068.07H24.83v-.07c.068-.346.204-.761.272-1.107.203-1.038.271-1.384.339-1.938l.068-.07c.543-.069.678-.069 1.221-.207l.068.07-.068.345c.068-.069.204-.138.272-.207.27-.139.542-.208.746-.208.271 0 .543.07.61.346.136.277.068.554-.135 1.246l-.068.415c-.136.692-.204.83-.34 1.315ZM31.751 93.882h-1.967c0 .07-.069.208-.069.208l-.339 1.661s-.814 3.53-.882 3.737h1.357c.068-.138.204-1.176.204-1.176l.203-.762.136-.138h.068c.746 0 1.56 0 2.239-.484.475-.346.746-.83.882-1.454.068-.138.068-.346.068-.484 0-.208-.068-.485-.204-.623-.203-.485-.882-.485-1.696-.485Zm.543 1.73c-.068.347-.34.693-.61.831-.272.139-.544.139-.883.139h-.203v-.07s.407-1.66.339-1.66v-.139h.136s.746.07.814.07c.339.138.475.414.407.83ZM40.368 96.236c-.61.069-.679.069-1.221.138l-.068.07c-.407.899-.407.691-.679 1.453v-.07l-.068-1.522-.068-.07c-.61.139-.61.139-1.153.208l-.068.07v.069c.068.346.068.276.136.83 0 .277.068.554.136.83.068.485.068.693.135 1.385-.339.623-.475.83-.814 1.384v.069h1.018l.068-.069c.339-.831 2.646-4.775 2.646-4.775ZM21.099 96.582c.271-.208.339-.485.068-.692a.944.944 0 0 0-1.018.138c-.272.207-.34.484-.068.692.271.138.746.07 1.018-.138Z"/><path fill="#fff" d="m37.722 100.872-.475.762c-.136.276-.407.484-.815.484h-.678l.204-.692h.271c.068 0 .068-.069.068-.069l.271-.415h1.154v-.07Z"/></g><g clip-path="url(#clip10_124_1303)"><path fill="#fff" d="M97.912 80H52.088C50.935 80 50 80.954 50 82.13v35.74c0 1.176.935 2.13 2.088 2.13h45.824c1.153 0 2.088-.954 2.088-2.13V82.13c0-1.176-.935-2.13-2.088-2.13Z"/><path stroke="#9DADBC" stroke-miterlimit="10" stroke-opacity=".36" d="M97.912 80.5H52.088c-.882 0-1.598.73-1.598 1.63v35.74c0 .9.716 1.63 1.598 1.63h45.824c.882 0 1.598-.73 1.598-1.63V82.13c0-.9-.716-1.63-1.598-1.63Z"/><path fill="#807AB7" d="m84.498 106.05.05.002v-.002h-.05Z"/><path fill="#4A4A49" d="M84.565 101.767v.002h.005"/><path fill="#004899" d="M67.764 98.462c.934 0 1.694-.767 1.694-1.71 0-.944-.76-1.712-1.694-1.712-.933 0-1.693.768-1.693 1.711 0 .944.76 1.711 1.693 1.711Z"/><path fill="#FFD600" d="M57.562 98.462c.933 0 1.693-.767 1.693-1.71 0-.944-.76-1.712-1.694-1.712-.933 0-1.693.768-1.693 1.711 0 .944.76 1.711 1.694 1.711Z"/><path fill="#004899" d="M68.728 99.436H67.08c-.402 0-.73.331-.73.738v.683c0 1.909-1.242 2.691-2.077 3a4.462 4.462 0 0 0-.05.018l-.05.018a4.232 4.232 0 0 1-1.484.255v.001c.763.008 1.38.636 1.38 1.408 0 .768-.612 1.394-1.369 1.407 1.394.01 2.26-.248 2.36-.28 1.079-.261 1.975-.718 2.668-1.376 1.147-1.09 1.729-2.693 1.729-4.765v-.37a.735.735 0 0 0-.73-.737Z"/><path fill="#FFD600" d="M62.677 104.149h-.003v-.002c-.938-.006-1.623-.29-1.623-.29-.835-.31-2.078-1.091-2.078-3v-.684a.734.734 0 0 0-.73-.737h-1.645c-.403 0-.73.33-.73.737v.37c0 2.072.581 3.675 1.728 4.765.69.655 1.582 1.111 2.654 1.373h-.023l.132.027c.288.065.589.117.902.154.498.066.955.095 1.369.101l.072.001a1.404 1.404 0 0 0 1.37-1.407 1.404 1.404 0 0 0-1.395-1.408Z"/><path fill="#4A4A49" d="M79.503 102.923a.733.733 0 0 0 .117.622c.275.411.835.636 1.299.437.553-.237 1.976-1.063 3-2.089v2.592c0 .186.15.336.333.336h.827c.183 0 .332-.15.332-.336v-4.537c0-.107.085-.194.192-.194h.692c.08 0 .144.066.144.146v4.585c0 .186.15.336.333.336h.826c.184 0 .333-.15.333-.336v-5.85a.334.334 0 0 0-.333-.336h-3.346a.334.334 0 0 0-.332.336c0 .163-.004.685.001.847-.736-.604-1.066-.898-2.511-1.053a3.183 3.183 0 0 0-1.288.118c-.996.31-.992.873-.995.98-.012.36.102.716.324.998.229.293.352.655.365 1.026.01.268-.037.536-.114.792-.065.211-.156.396-.2.58Zm1.287-2.788a.149.149 0 0 1 .037-.247c.534-.23 2.473.308 2.395.7-.08.401-2.416 2.163-2.225 1.56.03-.096.133-.435.157-.544.04-.176.063-.355.055-.537-.018-.4-.183-.634-.42-.932ZM93.884 98.3H88.77a.325.325 0 0 0-.333.324l-.023.877v.015c.014.235-.034.784.154 1.134.098.185.303.298.609.344.305.046.613.072.71.175.378.401-.302.578-.739.733-.593.21-.719.399-.719.871 0 .512-.078.79.124 1.272.218.519.71.437 1.201.403 2.972-.207 3.002.686 3.924.253.395-.185.53-.496.543-.947.005-.184-.004-.372-.004-.557v-4.58a.326.326 0 0 0-.333-.318Zm-1.512 4.82c-.827-.162-1.875-.109-1.973-.127-.242-.043-.273-.278.004-.443.157-.094 1.193-.414 1.21-1.239v-.01a.958.958 0 0 0-.631-.915l-.48-.176a.418.418 0 0 1-.345-.378c0-.05.03-.07.061-.079.037-.01.575-.002.575-.002h1.545c.183 0 .332.142.332.317.021.435.037.714.048 1.148.008.337.015.674.012 1.011 0 .087.041.461.042.716.001.31-.3.196-.4.177ZM78.484 99.749a.34.34 0 0 0 .332-.346v-.75a.34.34 0 0 0-.332-.346l-.808-.015c.337-.505.313-1.808-1.018-2.038-.804-.14-2.059.538-2.834-.06-.3-.232-.613-.267-.743.079a2.156 2.156 0 0 0-.125.48.746.746 0 0 0 .337.741c.415.28 1.279.385 2.623.103.675-.14.901.71.187.71H73.109a.339.339 0 0 0-.332.346v.75c0 .191.149.346.332.346l1.945-.001s0 .901.004 1.804c.002.656.354.923 1.39.797l.843-.145c.091-.019.173.063.157.158-.11.695-.895 1.047-1.793.99-.609-.039-1.013-.231-1.182-.539-.431-.784-.329-2.266-.329-2.266a.339.339 0 0 0-.332-.345h-.668a.324.324 0 0 0-.215.081c-.073.063-.17.386-.197.674-.037.424-.052 1.077.045 1.524.348 1.604 1.21 2.388 3.085 2.388.978 0 1.674-.362 2.143-.761.521-.444.813-1.023.813-1.722v-1.07c0-.156-.04-.494-.368-.609a.587.587 0 0 0-.394.011l-.948.228-.022.006c-.284.066-.426.04-.54-.065a.417.417 0 0 1-.127-.31l.004-.827 2.06-.001ZM91.034 106.943a.995.995 0 0 0 1.11-1.12.997.997 0 0 0-.852-.861.995.995 0 0 0-1.11 1.121.996.996 0 0 0 .852.86Z"/></g><defs><clipPath id="clip0_124_1303"><path fill="#fff" d="M0 120h50v40H0z"/></clipPath><clipPath id="clip1_124_1303"><path fill="#fff" d="M50 120h50v40H50z"/></clipPath><clipPath id="clip2_124_1303"><path fill="#fff" d="M0 0h50v40H0z"/></clipPath><clipPath id="clip3_124_1303"><path fill="#fff" d="M50 0h50v40H50z"/></clipPath><clipPath id="clip4_124_1303"><path fill="#fff" d="M0 40h50v40H0z"/></clipPath><clipPath id="clip5_124_1303"><path fill="#fff" d="M100 0h50v40h-50z"/></clipPath><clipPath id="clip6_124_1303"><path fill="#fff" d="M100 40h50v40h-50z"/></clipPath><clipPath id="clip7_124_1303"><path fill="#fff" d="M100 80h50v40h-50z"/></clipPath><clipPath id="clip8_124_1303"><path fill="#fff" d="M50 40h50v40H50z"/></clipPath><clipPath id="clip9_124_1303"><path fill="#fff" d="M0 80h50v40H0z"/></clipPath><clipPath id="clip10_124_1303"><path fill="#fff" d="M50 80h50v40H50z"/></clipPath><linearGradient id="paint0_linear_124_1303" x1="112.232" x2="138.498" y1="54.962" y2="54.962" gradientUnits="userSpaceOnUse"><stop stop-color="#949494"/><stop offset=".055" stop-color="#A6A6A6"/><stop offset=".165" stop-color="#D5D5D5"/><stop offset=".253" stop-color="#fff"/><stop offset=".37" stop-color="#CACACA"/><stop offset=".514" stop-color="#8F8F8F"/><stop offset=".621" stop-color="#6A6A6A"/><stop offset=".677" stop-color="#5C5C5C"/><stop offset=".718" stop-color="#636464"/><stop offset=".78" stop-color="#787878"/><stop offset=".854" stop-color="#9A9A9A"/><stop offset=".939" stop-color="#C9C9C9"/><stop offset="1" stop-color="#EFF0F0"/></linearGradient><linearGradient id="paint1_linear_124_1303" x1="125.51" x2="125.51" y1="45.168" y2="63.019" gradientUnits="userSpaceOnUse"><stop stop-color="#C2C4C6"/><stop offset=".215" stop-color="#DCDDDE"/><stop offset=".446" stop-color="#fff"/><stop offset=".766" stop-color="#C2C4C6"/><stop offset="1" stop-color="#9C9FA1"/></linearGradient><linearGradient id="paint2_linear_124_1303" x1="86.003" x2="65.356" y1="48.848" y2="70.144" gradientUnits="userSpaceOnUse"><stop stop-color="#50B748"/><stop offset=".404" stop-color="#4FB74A"/><stop offset=".549" stop-color="#4EB851"/><stop offset=".653" stop-color="#4AB85C"/><stop offset=".737" stop-color="#45BA6D"/><stop offset=".808" stop-color="#3FBB83"/><stop offset=".872" stop-color="#37BD9F"/><stop offset=".93" stop-color="#2EBFBF"/><stop offset=".981" stop-color="#24C2E3"/><stop offset="1" stop-color="#1FC3F3"/></linearGradient><linearGradient id="paint3_linear_124_1303" x1="68.025" x2="87.405" y1="53.525" y2="69.586" gradientUnits="userSpaceOnUse"><stop offset=".133" stop-color="#00934A"/><stop offset=".879" stop-color="#37B34A"/><stop offset="1" stop-color="#50B748"/></linearGradient><linearGradient id="paint4_linear_124_1303" x1="66.585" x2="82.21" y1="49.396" y2="65.724" gradientUnits="userSpaceOnUse"><stop stop-color="#EC1C24"/><stop offset=".311" stop-color="#E91C24"/><stop offset=".515" stop-color="#E11C24"/><stop offset=".687" stop-color="#D21D23"/><stop offset=".842" stop-color="#BD1D22"/><stop offset=".984" stop-color="#A21E21"/><stop offset="1" stop-color="#9E1E21"/></linearGradient><linearGradient id="paint5_linear_124_1303" x1="71.722" x2="78.978" y1="60.116" y2="62.555" gradientUnits="userSpaceOnUse"><stop stop-color="#EC1C24"/><stop offset="1" stop-color="#50B748"/></linearGradient><linearGradient id="paint6_linear_124_1303" x1="72.038" x2="79.295" y1="59.174" y2="61.613" gradientUnits="userSpaceOnUse"><stop stop-color="#EC1C24"/><stop offset="1" stop-color="#50B748"/></linearGradient><linearGradient id="paint7_linear_124_1303" x1="72.194" x2="79.45" y1="58.712" y2="61.151" gradientUnits="userSpaceOnUse"><stop stop-color="#EC1C24"/><stop offset="1" stop-color="#50B748"/></linearGradient></defs></svg>