<?xml version="1.0" encoding="utf-8"?>
<!-- Generator: Adobe Illustrator 19.0.0, SVG Export Plug-In . SVG Version: 6.00 Build 0)  -->
<svg version="1.1" id="Layer_1" xmlns="http://www.w3.org/2000/svg" xmlns:xlink="http://www.w3.org/1999/xlink" x="0px" y="0px"
	 viewBox="0 0 100 100" style="enable-background:new 0 0 100 100;" xml:space="preserve">
<style type="text/css">
	.st0{fill:url(#XMLID_4_);}
	.st1{fill:url(#XMLID_5_);}
	.st2{fill:#FFFFFF;}
</style>
<g id="XMLID_263_">
	<linearGradient id="XMLID_4_" gradientUnits="userSpaceOnUse" x1="50" y1="-5.3641" x2="50" y2="108.9643">
		<stop  offset="0" style="stop-color:#49B5E8"/>
		<stop  offset="0.1718" style="stop-color:#48B3E5"/>
		<stop  offset="0.3243" style="stop-color:#44ABDE"/>
		<stop  offset="0.4694" style="stop-color:#3E9FD3"/>
		<stop  offset="0.61" style="stop-color:#358EC5"/>
		<stop  offset="0.7474" style="stop-color:#2A7AB5"/>
		<stop  offset="0.8805" style="stop-color:#1965A4"/>
		<stop  offset="1" style="stop-color:#074F94"/>
	</linearGradient>
	<circle id="XMLID_81_" class="st0" cx="50" cy="50" r="49.1"/>
</g>
<radialGradient id="XMLID_5_" cx="55.7208" cy="68.9947" r="68.9389" gradientTransform="matrix(0.9239 -0.3825 0.236 0.5702 -12.0483 50.9716)" gradientUnits="userSpaceOnUse">
	<stop  offset="0" style="stop-color:#000000"/>
	<stop  offset="1" style="stop-color:#FFFFFF;stop-opacity:0"/>
</radialGradient>
<path id="XMLID_52_" class="st1" d="M94.2,28.5c1,3.7,1.5,7.5,1.5,11.5c0,26.1-23,47.2-51.5,47.2c-15.3,0-29.1-6.2-38.5-15.9
	C13.7,87.8,30.5,99.1,50,99.1c27.1,0,49.1-22,49.1-49.1C99.1,42.3,97.3,35,94.2,28.5z"/>
<g id="XMLID_3_">
	<path id="XMLID_2_" class="st2" d="M63,56c-0.5-0.5-1.2-0.8-1.9-0.8c-0.8,0-1.5,0.3-2.1,0.9l-1.8,1.8c-0.6,0.6-1.4,0.9-2.2,0.9
		c-0.5,0-1.1-0.1-1.6-0.4c-2-1.2-4.4-2.7-6.8-5.1c-2.2-2.2-3.5-4.2-5-6.8c-0.7-1.2-0.5-2.8,0.5-3.8L44,41c1.1-1.1,1.2-2.9,0.1-4
		l-6.4-6.4c-0.5-0.5-1.2-0.8-1.9-0.8c-0.8,0-1.5,0.3-2.1,0.9c-2,2-3.4,3.6-3.8,6.8c-0.8,6.8,2.3,13.1,10.9,21.7
		c10.1,10.1,18.6,10.9,21,10.9h0c0.4,0,0.7,0,0.7,0c3.1-0.4,4.5-1.5,6.8-3.7c1.1-1.1,1.1-2.9,0.1-4L63,56z"/>
</g>
</svg>
