<?xml version="1.0" encoding="utf-8"?>
<!-- Generator: Adobe Illustrator 19.0.0, SVG Export Plug-In . SVG Version: 6.00 Build 0)  -->
<svg version="1.1" id="Layer_1" xmlns="http://www.w3.org/2000/svg" xmlns:xlink="http://www.w3.org/1999/xlink" x="0px" y="0px"
	 viewBox="0 0 100 100" style="enable-background:new 0 0 100 100;" xml:space="preserve">
<style type="text/css">
	.st0{fill:url(#XMLID_3_);}
	.st1{fill:#FFFFFF;}
	.st2{fill:url(#XMLID_4_);}
	.st3{fill:url(#XMLID_5_);}
</style>
<g id="XMLID_2_">
	<g id="XMLID_336_">
		<g id="XMLID_338_">
			<linearGradient id="XMLID_3_" gradientUnits="userSpaceOnUse" x1="50" y1="7.2502" x2="50" y2="91.7419">
				<stop  offset="0" style="stop-color:#6887C4"/>
				<stop  offset="0.1946" style="stop-color:#627EB9"/>
				<stop  offset="0.5416" style="stop-color:#4F69A3"/>
				<stop  offset="0.9983" style="stop-color:#314C86"/>
				<stop  offset="1" style="stop-color:#314C86"/>
			</linearGradient>
			<circle id="XMLID_125_" class="st0" cx="50" cy="50" r="49"/>
		</g>
		<path id="XMLID_124_" class="st1" d="M42.1,82.2h12.6V50.7h8.8l0.9-10.5h-9.7c0,0,0-3.9,0-6c0-2.5,0.5-3.5,2.9-3.5
			c1.9,0,6.8,0,6.8,0V19.8c0,0-7.2,0-8.7,0c-9.4,0-13.6,4.1-13.6,12c0,6.9,0,8.4,0,8.4h-6.5v10.7h6.5V82.2z"/>
	</g>
	<g id="XMLID_61_">
		
			<radialGradient id="XMLID_4_" cx="31.3604" cy="67.5889" r="55.626" gradientTransform="matrix(1.2371 -9.260000e-002 -9.260000e-002 1.0361 25.819 -10.7793)" gradientUnits="userSpaceOnUse">
			<stop  offset="0" style="stop-color:#FFFFFF"/>
			<stop  offset="0.1042" style="stop-color:#FFFFFF;stop-opacity:0.8958"/>
			<stop  offset="1" style="stop-color:#FFFFFF;stop-opacity:0"/>
		</radialGradient>
		<path id="XMLID_63_" class="st2" d="M78.4,14.3C73.4,4.7,52.4-3.6,32.4,4.2C12.4,12,1.2,30.7,5.9,42.6s24.7,15.3,44.7,7.5
			C70.6,42.2,84.2,25.7,78.4,14.3z"/>
		
			<radialGradient id="XMLID_5_" cx="55.7035" cy="68.8624" r="68.7303" gradientTransform="matrix(0.9239 -0.3825 0.236 0.5702 -12.0184 50.9081)" gradientUnits="userSpaceOnUse">
			<stop  offset="0" style="stop-color:#000000"/>
			<stop  offset="1" style="stop-color:#FFFFFF;stop-opacity:0"/>
		</radialGradient>
		<path id="XMLID_62_" class="st3" d="M94.1,28.5c1,3.7,1.5,7.5,1.5,11.5c0,26-23,47.1-51.3,47.1c-15.3,0-29-6.1-38.4-15.9
			C13.8,87.6,30.6,98.9,50,98.9c27,0,49-21.9,49-49C99,42.2,97.2,35,94.1,28.5z"/>
	</g>
</g>
</svg>
