<?xml version="1.0" encoding="utf-8"?>
<!-- Generator: Adobe Illustrator 19.0.0, SVG Export Plug-In . SVG Version: 6.00 Build 0)  -->
<svg version="1.1" id="Layer_1" xmlns="http://www.w3.org/2000/svg" xmlns:xlink="http://www.w3.org/1999/xlink" x="0px" y="0px"
	 viewBox="0 0 100 100" style="enable-background:new 0 0 100 100;" xml:space="preserve">
<style type="text/css">
	.st0{fill:url(#XMLID_3_);}
	.st1{fill:#FFFFFF;}
	.st2{fill:url(#XMLID_4_);}
	.st3{fill:url(#XMLID_5_);}
</style>
<g id="XMLID_97_">
	<g id="XMLID_146_">
		<g id="XMLID_151_">
			<linearGradient id="XMLID_3_" gradientUnits="userSpaceOnUse" x1="16.9346" y1="15.5098" x2="83.1938" y2="84.6086">
				<stop  offset="0" style="stop-color:#5A90CC"/>
				<stop  offset="2.514506e-003" style="stop-color:#5A90CC"/>
				<stop  offset="0.3127" style="stop-color:#4C81C2"/>
				<stop  offset="0.5075" style="stop-color:#477BBF"/>
				<stop  offset="0.7513" style="stop-color:#447ABE"/>
				<stop  offset="0.8833" style="stop-color:#3C75BB"/>
				<stop  offset="0.9884" style="stop-color:#2D6EB6"/>
				<stop  offset="1" style="stop-color:#2A6DB6"/>
			</linearGradient>
			<circle id="XMLID_12_" class="st0" cx="50.2" cy="50.2" r="49.4"/>
			<path id="XMLID_6_" class="st1" d="M50.2,21.9c-16.6,0-30.1,12.7-30.1,28.3c0,8.8,4.2,16.6,10.9,21.8v11.3l10.7-5.9
				c2.7,0.7,5.6,1.2,8.5,1.2c16.6,0,30.1-12.7,30.1-28.3S66.8,21.9,50.2,21.9z M53.4,59.9l-7.7-8l-15,8l16.6-17.1l7.7,8l14.8-8
				L53.4,59.9z"/>
		</g>
	</g>
	<g id="XMLID_2_">
		
			<radialGradient id="XMLID_4_" cx="31.5929" cy="67.9132" r="56.1337" gradientTransform="matrix(1.2371 -9.260000e-002 -9.260000e-002 1.0361 25.819 -10.7793)" gradientUnits="userSpaceOnUse">
			<stop  offset="0" style="stop-color:#FFFFFF"/>
			<stop  offset="0.1042" style="stop-color:#FFFFFF;stop-opacity:0.8958"/>
			<stop  offset="1" style="stop-color:#FFFFFF;stop-opacity:0"/>
		</radialGradient>
		<path id="XMLID_19_" class="st2" d="M78.8,14.2C73.8,4.5,52.6-3.8,32.4,4C12.2,11.9,1,30.7,5.7,42.8c4.7,12,24.9,15.4,45.1,7.5
			C70.9,42.4,84.7,25.7,78.8,14.2z"/>
		
			<radialGradient id="XMLID_5_" cx="55.9368" cy="69.2913" r="69.3575" gradientTransform="matrix(0.9239 -0.3825 0.236 0.5702 -12.1019 51.1817)" gradientUnits="userSpaceOnUse">
			<stop  offset="0" style="stop-color:#000000"/>
			<stop  offset="1" style="stop-color:#FFFFFF;stop-opacity:0"/>
		</radialGradient>
		<path id="XMLID_16_" class="st3" d="M94.6,28.6c1,3.7,1.6,7.6,1.6,11.6c0,26.2-23.2,47.5-51.8,47.5c-15.4,0-29.3-6.2-38.8-16
			c8,16.6,24.9,28,44.5,28c27.3,0,49.4-22.1,49.4-49.4C99.6,42.4,97.8,35.1,94.6,28.6z"/>
	</g>
</g>
</svg>
