<?xml version="1.0" encoding="utf-8"?>
<!-- Generator: Adobe Illustrator 19.0.0, SVG Export Plug-In . SVG Version: 6.00 Build 0)  -->
<svg version="1.1" id="Layer_1" xmlns="http://www.w3.org/2000/svg" xmlns:xlink="http://www.w3.org/1999/xlink" x="0px" y="0px"
	 viewBox="0 0 270 60" style="enable-background:new 0 0 270 60;" xml:space="preserve">
<style type="text/css">
	.st0{fill:#F8971D;}
	.st1{clip-path:url(#SVGID_2_);fill:#427839;}
	.st2{clip-path:url(#SVGID_4_);}
	.st3{fill:#FFFFFF;}
	.st4{clip-path:url(#SVGID_6_);}
	.st5{fill:#55B3E5;}
	.st6{clip-path:url(#SVGID_8_);}
	.st7{fill:#3F9DC6;}
	.st8{enable-background:new    ;}
	.st9{fill:#383838;}
	.st10{clip-path:url(#SVGID_10_);fill:#427839;}
	.st11{clip-path:url(#SVGID_12_);}
	.st12{clip-path:url(#SVGID_14_);}
	.st13{clip-path:url(#SVGID_16_);}
</style>
<g id="XMLID_29_">
	<path id="XMLID_11_" class="st0" d="M-54.8,22.2c0.3,0,0.5-0.1,0.8-0.1C-56.3,10.6-66.4,1.9-78.6,1.9c-13.9,0-25.1,11.2-25.1,25.1
		c0,0.4,0,0.7,0,1.1c0.6-12.8,10.8-23,23.3-23c9.5,0,17.7,5.9,21.3,14.5c1.3,0.5,2.6,1.2,3.6,2L-54.8,22.2z"/>
	<g id="XMLID_28_">
		<g>
			<defs>
				<path id="SVGID_1_" d="M-61.2,50.5h-35.3c-3.9,0-7.2-3.2-7.2-7.2V10.2c0-3.9,3.2-7.2,7.2-7.2h35.3c3.9,0,7.2,3.2,7.2,7.2v33.1
					C-54,47.3-57.2,50.5-61.2,50.5z"/>
			</defs>
			<clipPath id="SVGID_2_">
				<use xlink:href="#SVGID_1_"  style="overflow:visible;"/>
			</clipPath>
			<path id="XMLID_8_" class="st1" d="M-54.5,25.4l-6.7,9.9c-0.4,0.6-1.2,0.6-1.6,0l-5.6-7.2c-0.9-1.1-2.6-1.1-3.5,0l-3.6,4.7
				c-0.5,0.6-1.3,0.6-1.8,0.1l-7.4-8.1c-1-1.1-2.8-1.1-3.9,0l-5.8,6.4c-0.5,0.6-1.4,0.5-1.9,0l-1.5-1.9c-0.9-1.1-2.7-1.1-3.6,0
				l-1.4,1.7c-0.5,0.6-0.8,1.4-0.8,2.2V44c0,3.7,3,6.7,6.7,6.7h36.4c3.7,0,6.7-3,6.7-6.7V25.6C-53.8,25.2-54.3,25.1-54.5,25.4z"/>
		</g>
		<g>
			<defs>
				<path id="SVGID_3_" d="M-61.2,50.5h-35.3c-3.9,0-7.2-3.2-7.2-7.2V10.2c0-3.9,3.2-7.2,7.2-7.2h35.3c3.9,0,7.2,3.2,7.2,7.2v33.1
					C-54,47.3-57.2,50.5-61.2,50.5z"/>
			</defs>
			<clipPath id="SVGID_4_">
				<use xlink:href="#SVGID_3_"  style="overflow:visible;"/>
			</clipPath>
			<g id="XMLID_25_" class="st2">
				<g id="XMLID_30_">
					<path id="XMLID_23_" class="st3" d="M-101.4,43.6l2.7,6.9h41l1.2-5.1C-56.4,45.4-89.9,47-101.4,43.6z"/>
					<polygon id="XMLID_22_" class="st3" points="-92.1,46.3 -89.6,42.7 -64.3,42.8 -61.8,46.4 					"/>
					<path id="XMLID_21_" class="st3" d="M-70.4,33.9c-0.9,0-1,3.6-1,3.6h1h1C-69.4,37.5-69.6,33.9-70.4,33.9z"/>
					<polygon id="XMLID_20_" class="st3" points="-80.5,37.2 -76.9,30.6 -76.3,30.6 -78.6,34.9 -77.8,38 					"/>
					<path id="XMLID_31_" class="st3" d="M-67.9,37.2h-12.6l-3.7,5.9l21.5,1.9L-67.9,37.2z M-80.8,40.5h12.1l1.8,2.4h-15.3
						L-80.8,40.5z"/>
				</g>
				<rect id="XMLID_17_" x="-79.6" y="40" class="st3" width="1" height="3.6"/>
				<rect id="XMLID_10_" x="-76.6" y="40" class="st3" width="1" height="3.6"/>
				<rect id="XMLID_7_" x="-73.7" y="40" class="st3" width="1" height="3.6"/>
				<rect id="XMLID_2_" x="-70.7" y="40" class="st3" width="1" height="3.6"/>
			</g>
		</g>
		<g>
			<defs>
				<path id="SVGID_5_" d="M-61.2,50.5h-35.3c-3.9,0-7.2-3.2-7.2-7.2V10.2c0-3.9,3.2-7.2,7.2-7.2h35.3c3.9,0,7.2,3.2,7.2,7.2v33.1
					C-54,47.3-57.2,50.5-61.2,50.5z"/>
			</defs>
			<clipPath id="SVGID_6_">
				<use xlink:href="#SVGID_5_"  style="overflow:visible;"/>
			</clipPath>
			<g id="XMLID_1_" class="st4">
				<path id="XMLID_6_" class="st5" d="M-57.9,52.3c-2.2,0-3.4-0.8-4.4-1.4c-0.8-0.5-1.4-0.9-2.8-0.9s-2,0.4-2.8,0.9
					c-1,0.6-2.2,1.4-4.4,1.4s-3.4-0.8-4.4-1.4c-0.8-0.5-1.4-0.9-2.8-0.9s-2,0.4-2.8,0.9c-1,0.6-2.2,1.4-4.4,1.4
					c-2.2,0-3.4-0.8-4.4-1.4c-0.8-0.5-1.4-0.9-2.8-0.9s-2,0.4-2.8,0.9c-1,0.6-2.2,1.4-4.4,1.4c-2.2,0-3.4-0.8-4.4-1.4
					c-0.8-0.5-1.4-0.9-2.8-0.9v-3c2.2,0,3.4,0.8,4.4,1.4c0.8,0.5,1.4,0.9,2.8,0.9s2-0.4,2.8-0.9c1-0.6,2.2-1.4,4.4-1.4
					c2.2,0,3.4,0.8,4.4,1.4c0.8,0.5,1.4,0.9,2.8,0.9s2-0.4,2.8-0.9c1-0.6,2.2-1.4,4.4-1.4c2.2,0,3.4,0.8,4.4,1.4
					c0.8,0.5,1.4,0.9,2.8,0.9s2-0.4,2.8-0.9c1-0.6,2.2-1.4,4.4-1.4c2.2,0,3.4,0.8,4.4,1.4c0.8,0.5,1.4,0.9,2.8,0.9s2-0.4,2.8-0.9
					c1-0.6,2.2-1.4,4.4-1.4v3c-1.4,0-2,0.4-2.8,0.9C-54.5,51.5-55.7,52.3-57.9,52.3z"/>
			</g>
		</g>
		<g>
			<defs>
				<path id="SVGID_7_" d="M-61.2,50.5h-35.3c-3.9,0-7.2-3.2-7.2-7.2V10.2c0-3.9,3.2-7.2,7.2-7.2h35.3c3.9,0,7.2,3.2,7.2,7.2v33.1
					C-54,47.3-57.2,50.5-61.2,50.5z"/>
			</defs>
			<clipPath id="SVGID_8_">
				<use xlink:href="#SVGID_7_"  style="overflow:visible;"/>
			</clipPath>
			<g id="XMLID_24_" class="st6">
				<path id="XMLID_26_" class="st7" d="M-57.9,54.6c-2.2,0-3.4-0.8-4.4-1.4c-0.8-0.5-1.4-0.9-2.8-0.9s-2,0.4-2.8,0.9
					c-1,0.6-2.2,1.4-4.4,1.4s-3.4-0.8-4.4-1.4c-0.8-0.5-1.4-0.9-2.8-0.9s-2,0.4-2.8,0.9c-1,0.6-2.2,1.4-4.4,1.4
					c-2.2,0-3.4-0.8-4.4-1.4c-0.8-0.5-1.4-0.9-2.8-0.9s-2,0.4-2.8,0.9c-1,0.6-2.2,1.4-4.4,1.4c-2.2,0-3.4-0.8-4.4-1.4
					c-0.8-0.5-1.4-0.9-2.8-0.9v-2.9c2.2,0,3.4,0.8,4.4,1.4c0.8,0.5,1.4,0.9,2.8,0.9s2-0.4,2.8-0.9c1-0.6,2.2-1.4,4.4-1.4
					c2.2,0,3.4,0.8,4.4,1.4c0.8,0.5,1.4,0.9,2.8,0.9s2-0.4,2.8-0.9c1-0.6,2.2-1.4,4.4-1.4c2.2,0,3.4,0.8,4.4,1.4
					c0.8,0.5,1.4,0.9,2.8,0.9s2-0.4,2.8-0.9c1-0.6,2.2-1.4,4.4-1.4c2.2,0,3.4,0.8,4.4,1.4c0.8,0.5,1.4,0.9,2.8,0.9s2-0.4,2.8-0.9
					c1-0.6,2.2-1.4,4.4-1.4v2.9c-1.4,0-2,0.4-2.8,0.9C-54.5,53.9-55.7,54.6-57.9,54.6z"/>
			</g>
		</g>
	</g>
</g>
<g class="st8">
	<path class="st9" d="M69.8,26h-0.4c-2,0-3.6,0.5-4.7,1.5c-1.1,1-1.7,2.8-1.7,5.3c0,0.8,0.1,1.4,0.2,1.7s0.2,0.5,0.2,0.6
		c-1.2,0-2.1-0.3-2.7-0.8c-0.6-0.5-0.9-1.3-0.9-2.5c0-1.6,0.4-3.1,1.2-4.4c0.8-1.3,2-2.4,3.8-3.2c1.7-0.8,3.9-1.2,6.6-1.2
		c1.5,0,3.1,0.1,4.8,0.4c1.4,0.2,2.7,0.4,3.9,0.4c1.4,0,2.7-0.2,3.9-0.7c0,1.5-0.4,2.5-1.1,3.2c-0.7,0.7-1.7,1-3.1,1
		c-0.7,0-1.4-0.1-2.2-0.2c-0.7-0.1-1.7-0.3-3.1-0.6l-4.7,21.7H65L69.8,26z"/>
	<path class="st9" d="M78.2,31.5h4.9l-0.4,2.1c0.8-0.7,1.5-1.2,2.1-1.6c0.6-0.4,1.3-0.5,2-0.5c0.7,0,1.3,0.2,1.7,0.7
		c0.4,0.5,0.6,1.1,0.6,1.8c0,0.7-0.2,1.2-0.6,1.7c-0.4,0.5-1,0.7-1.8,0.7c-0.5,0-0.8-0.1-1-0.4c-0.2-0.2-0.3-0.6-0.4-1
		c-0.1-0.3-0.1-0.5-0.2-0.6c-0.1-0.1-0.2-0.2-0.4-0.2c-0.5,0-0.9,0.1-1.2,0.3c-0.3,0.2-0.7,0.5-1.3,1l-2.7,12.8h-4.9L78.2,31.5z"/>
	<path class="st9" d="M89.5,47.3c-0.9-0.9-1.3-2.3-1.3-4.1c0-1.7,0.3-3.4,1-5.3c0.7-1.8,1.7-3.4,3-4.7c1.3-1.3,2.9-1.9,4.7-1.9
		c0.9,0,1.6,0.2,2.1,0.5c0.5,0.3,0.7,0.7,0.7,1.3v0.2l0.4-1.8h4.9L102.4,43c-0.1,0.3-0.1,0.7-0.1,1.1c0,1,0.5,1.5,1.4,1.5
		c0.6,0,1.2-0.3,1.6-0.9c0.5-0.6,0.8-1.4,1.1-2.3h1.4c-0.8,2.4-1.9,4.1-3.1,5s-2.5,1.3-3.7,1.3c-0.9,0-1.7-0.3-2.3-0.8
		c-0.6-0.5-0.9-1.3-1-2.3c-0.7,0.9-1.4,1.7-2.2,2.2c-0.8,0.6-1.8,0.9-2.9,0.9C91.4,48.6,90.3,48.2,89.5,47.3z M96.6,44.5
		c0.6-0.5,0.9-1.3,1.1-2.2l1.6-7.6c0-0.3-0.1-0.6-0.3-0.9c-0.2-0.3-0.6-0.4-1-0.4c-0.9,0-1.7,0.5-2.4,1.6c-0.7,1-1.3,2.3-1.7,3.8
		c-0.4,1.5-0.6,2.8-0.6,3.9c0,1.1,0.2,1.8,0.5,2.2c0.3,0.3,0.7,0.5,1.2,0.5C95.5,45.3,96,45.1,96.6,44.5z"/>
	<path class="st9" d="M107.2,47.6c-0.7-0.7-1.1-1.7-1.1-3c0-0.5,0.1-1.1,0.2-1.6l2.4-11.5h4.9L111.2,43c-0.1,0.6-0.2,1-0.2,1.2
		c0,0.7,0.4,1.1,1.1,1.1c1,0,2-0.7,2.9-2c0.9-1.3,1.6-2.9,2.1-4.7s0.8-3.4,0.8-4.7c0,0.1-0.2,0.2-0.4,0.3c-0.2,0.1-0.5,0.1-0.6,0.1
		c-0.4,0-0.7-0.2-0.9-0.5c-0.2-0.4-0.3-0.8-0.3-1.2c0-0.5,0.2-1,0.5-1.3c0.3-0.3,0.9-0.5,1.6-0.5c0.7,0,1.3,0.3,1.6,0.8
		c0.3,0.6,0.5,1.3,0.5,2.1c0,2-0.4,4.2-1,6.5c-0.7,2.3-1.8,4.3-3.2,5.9c-1.4,1.6-3.2,2.4-5.4,2.4C109,48.6,108,48.3,107.2,47.6z"/>
	<path class="st9" d="M121.4,47.3c-0.9-0.9-1.4-2.2-1.4-4.1c0-1.6,0.3-3.3,0.9-5.1c0.6-1.9,1.6-3.5,3-4.9s3.1-2,5.2-2
		c2.5,0,3.7,1.1,3.7,3.2c0,1.3-0.4,2.4-1.1,3.5c-0.7,1.1-1.7,1.9-2.9,2.6c-1.2,0.6-2.5,1-3.8,1.1c0,0.7-0.1,1.1-0.1,1.4
		c0,1.1,0.2,1.9,0.6,2.2c0.4,0.4,1,0.6,1.9,0.6c1.2,0,2.3-0.3,3.1-0.8c0.9-0.6,1.8-1.4,2.9-2.6h1.1c-2.5,4.2-5.6,6.3-9.3,6.3
		C123.6,48.6,122.3,48.2,121.4,47.3z M127.7,39.1c0.8-0.5,1.4-1.2,1.8-2.1c0.5-0.8,0.7-1.7,0.7-2.6c0-0.9-0.3-1.4-0.8-1.4
		c-0.8,0-1.6,0.7-2.4,2.1c-0.8,1.4-1.3,3-1.7,4.8C126.2,39.9,127,39.6,127.7,39.1z"/>
	<path class="st9" d="M134.1,47.6c-0.7-0.7-1-1.7-1-3.1c0-0.6,0.1-1.3,0.3-2.2l3.6-16.9l5-0.7l-3.9,18.3c-0.1,0.3-0.1,0.7-0.1,1
		c0,0.9,0.5,1.4,1.4,1.4c0.4,0,0.8-0.1,1.1-0.2c-0.1,1.1-0.5,2-1.2,2.6c-0.7,0.6-1.5,0.9-2.5,0.9C135.6,48.6,134.7,48.3,134.1,47.6z
		"/>
	<path class="st9" d="M157.9,26h-0.4c-2,0-3.6,0.5-4.7,1.5c-1.1,1-1.7,2.8-1.7,5.3c0,0.8,0.1,1.4,0.2,1.7c0.2,0.3,0.2,0.5,0.2,0.6
		c-1.2,0-2.1-0.3-2.7-0.8c-0.6-0.5-0.9-1.3-0.9-2.5c0-1.6,0.4-3.1,1.2-4.4c0.8-1.3,2-2.4,3.8-3.2c1.7-0.8,3.9-1.2,6.6-1.2
		c1.5,0,3.1,0.1,4.8,0.4c1.4,0.2,2.7,0.4,3.9,0.4c1.4,0,2.7-0.2,3.9-0.7c0,1.5-0.4,2.5-1.1,3.2c-0.7,0.7-1.7,1-3.1,1
		c-0.7,0-1.4-0.1-2.2-0.2c-0.7-0.1-1.7-0.3-3.1-0.6l-4.7,21.7h-4.9L157.9,26z"/>
	<path class="st9" d="M164.9,47.3c-0.9-0.9-1.3-2.3-1.3-4.1c0-1.7,0.3-3.4,1-5.3c0.7-1.8,1.7-3.4,3-4.7s2.9-1.9,4.7-1.9
		c0.9,0,1.6,0.2,2.1,0.5c0.5,0.3,0.7,0.7,0.7,1.3v0.2l0.4-1.8h4.9L177.8,43c-0.1,0.3-0.1,0.7-0.1,1.1c0,1,0.5,1.5,1.4,1.5
		c0.6,0,1.2-0.3,1.6-0.9s0.8-1.4,1.1-2.3h1.4c-0.8,2.4-1.9,4.1-3.1,5s-2.5,1.3-3.7,1.3c-0.9,0-1.7-0.3-2.3-0.8
		c-0.6-0.5-0.9-1.3-1-2.3c-0.7,0.9-1.4,1.7-2.2,2.2c-0.8,0.6-1.8,0.9-2.9,0.9C166.8,48.6,165.7,48.2,164.9,47.3z M171.9,44.5
		c0.6-0.5,0.9-1.3,1.1-2.2l1.6-7.6c0-0.3-0.1-0.6-0.3-0.9c-0.2-0.3-0.6-0.4-1-0.4c-0.9,0-1.7,0.5-2.4,1.6c-0.7,1-1.3,2.3-1.7,3.8
		c-0.4,1.5-0.6,2.8-0.6,3.9c0,1.1,0.2,1.8,0.5,2.2c0.3,0.3,0.7,0.5,1.2,0.5C170.8,45.3,171.4,45.1,171.9,44.5z"/>
	<path class="st9" d="M191,47.5c-0.6-0.7-1-1.6-1-2.7c0-0.5,0.1-1,0.2-1.6c0.1-0.6,0.2-1.2,0.4-1.7c0.1-0.6,0.2-0.9,0.3-1.1
		c0.2-0.8,0.3-1.6,0.5-2.3c0.2-0.8,0.2-1.4,0.2-1.9c0-1.1-0.4-1.7-1.2-1.7c-0.6,0-1.1,0.3-1.6,0.9s-0.8,1.3-1.1,2.2l-2.3,10.9h-4.9
		l3.6-16.9h4.9l-0.4,1.8c1.1-1.3,2.4-1.9,4-1.9c1.2,0,2.1,0.3,2.7,0.9c0.7,0.6,1,1.6,1,2.9c0,0.7-0.1,1.4-0.2,2.2
		c-0.2,0.8-0.4,1.8-0.7,2.9c-0.2,0.7-0.3,1.4-0.5,2s-0.2,1.2-0.2,1.6c0,0.5,0.1,0.8,0.3,1c0.2,0.2,0.6,0.4,1,0.4
		c0.7,0,1.2-0.2,1.6-0.7c0.4-0.5,0.8-1.2,1.2-2.2h1.4c-0.8,2.5-1.8,4.1-2.9,5c-1.1,0.8-2.2,1.3-3.4,1.3
		C192.6,48.6,191.6,48.2,191,47.5z"/>
	<path class="st9" d="M202.2,56c-0.7-0.6-1.1-1.4-1.1-2.4c0-1.3,0.5-2.3,1.6-3.1c1-0.8,2.4-1.4,4-1.9l0.4-1.8
		c-1.1,1.2-2.5,1.9-4.1,1.9c-1.3,0-2.4-0.4-3.2-1.3c-0.9-0.9-1.3-2.3-1.3-4.1c0-1.7,0.3-3.4,1-5.3c0.7-1.8,1.7-3.4,3-4.7
		c1.3-1.3,2.9-1.9,4.7-1.9c0.9,0,1.6,0.2,2.1,0.5c0.5,0.3,0.7,0.7,0.7,1.3v0.2l0.4-1.8h4.9l-3.3,15.7c1.1-0.4,1.9-0.9,2.6-1.6
		c0.7-0.7,1.2-1.8,1.7-3.2h1.4c-0.6,2-1.4,3.5-2.5,4.4s-2.2,1.6-3.5,1.9l-0.5,2.4c-0.5,2.2-1.2,3.7-2.3,4.5
		c-1.1,0.8-2.4,1.2-3.8,1.2C203.8,56.9,202.9,56.6,202.2,56z M205.2,53.4c0.4-0.5,0.6-1.3,0.8-2.2l0.2-1c-2.2,0.8-3.3,1.8-3.3,2.9
		c0,0.3,0.1,0.6,0.3,0.8c0.2,0.2,0.5,0.3,0.8,0.3C204.5,54.2,204.8,54,205.2,53.4z M206.7,44.6c0.5-0.5,0.9-1.1,1.1-1.9l1.7-8
		c0-0.3-0.1-0.5-0.3-0.8c-0.2-0.3-0.6-0.4-1-0.4c-0.9,0-1.7,0.5-2.4,1.6c-0.7,1-1.3,2.3-1.7,3.8c-0.4,1.5-0.6,2.8-0.6,3.9
		c0,1.1,0.2,1.8,0.5,2.2c0.3,0.3,0.7,0.5,1.2,0.5C205.6,45.3,206.2,45.1,206.7,44.6z"/>
	<path class="st9" d="M216.7,47.6c-0.7-0.7-1-1.7-1-3c0-0.6,0.1-1.3,0.3-2.2l2.3-10.9h4.9L220.8,43c-0.1,0.3-0.1,0.7-0.1,0.9
		c0,0.9,0.3,1.4,1,1.4c0.6,0,1.2-0.3,1.6-0.8c0.5-0.5,0.8-1.3,1.1-2.2l2.3-10.9h4.9L229.1,43c-0.1,0.3-0.1,0.7-0.1,1.1
		c0,0.5,0.1,0.8,0.3,1s0.6,0.3,1.1,0.3c0.6,0,1.2-0.3,1.6-0.8s0.8-1.3,1.1-2.2h1.4c-0.8,2.4-1.9,4.1-3.1,5c-1.2,0.9-2.5,1.3-3.7,1.3
		c-1,0-1.7-0.3-2.3-0.8c-0.6-0.5-0.9-1.3-1-2.4c-0.8,1.2-1.6,2.1-2.4,2.5c-0.8,0.5-1.7,0.7-2.6,0.7
		C218.3,48.6,217.4,48.3,216.7,47.6z"/>
	<path class="st9" d="M233.9,47.3c-0.9-0.9-1.3-2.3-1.3-4.1c0-1.7,0.3-3.4,1-5.3c0.7-1.8,1.7-3.4,3-4.7c1.3-1.3,2.9-1.9,4.7-1.9
		c0.9,0,1.6,0.2,2.1,0.5c0.5,0.3,0.7,0.7,0.7,1.3v0.2l0.4-1.8h4.9L246.9,43c-0.1,0.3-0.1,0.7-0.1,1.1c0,1,0.5,1.5,1.4,1.5
		c0.6,0,1.2-0.3,1.6-0.9s0.8-1.4,1.1-2.3h1.4c-0.8,2.4-1.9,4.1-3.1,5c-1.2,0.9-2.5,1.3-3.7,1.3c-0.9,0-1.7-0.3-2.3-0.8
		c-0.6-0.5-0.9-1.3-1-2.3c-0.7,0.9-1.4,1.7-2.2,2.2c-0.8,0.6-1.8,0.9-2.9,0.9C235.9,48.6,234.8,48.2,233.9,47.3z M241,44.5
		c0.6-0.5,0.9-1.3,1.1-2.2l1.6-7.6c0-0.3-0.1-0.6-0.3-0.9c-0.2-0.3-0.6-0.4-1-0.4c-0.9,0-1.7,0.5-2.4,1.6c-0.7,1-1.3,2.3-1.7,3.8
		c-0.4,1.5-0.6,2.8-0.6,3.9c0,1.1,0.2,1.8,0.5,2.2c0.3,0.3,0.7,0.5,1.2,0.5C239.9,45.3,240.5,45.1,241,44.5z"/>
	<path class="st9" d="M253.2,31.5h4.9l-0.4,2.1c0.8-0.7,1.5-1.2,2.1-1.6c0.6-0.4,1.3-0.5,2-0.5c0.7,0,1.3,0.2,1.7,0.7
		c0.4,0.5,0.6,1.1,0.6,1.8c0,0.7-0.2,1.2-0.6,1.7c-0.4,0.5-1,0.7-1.8,0.7c-0.5,0-0.8-0.1-1-0.4c-0.2-0.2-0.3-0.6-0.4-1
		c-0.1-0.3-0.1-0.5-0.2-0.6c-0.1-0.1-0.2-0.2-0.4-0.2c-0.5,0-0.9,0.1-1.2,0.3c-0.3,0.2-0.8,0.5-1.3,1l-2.7,12.8h-4.9L253.2,31.5z"/>
</g>
<path id="XMLID_44_" class="st0" d="M54.6,23.5c0.2,0,0.5-0.1,0.7-0.1c-2.2-10.8-11.7-19-23.2-19C19.1,4.4,8.5,15,8.5,28
	c0,0.3,0,0.7,0,1c0.6-12,10.2-21.6,22-21.6c9,0,16.7,5.6,20.1,13.6c1.3,0.5,2.4,1.1,3.4,1.9L54.6,23.5z"/>
<g id="XMLID_4_">
	<g>
		<defs>
			<path id="SVGID_9_" d="M48.6,50.1H15.4c-3.7,0-6.7-3-6.7-6.7V12.1c0-3.7,3-6.7,6.7-6.7h33.2c3.7,0,6.7,3,6.7,6.7v31.2
				C55.4,47.1,52.3,50.1,48.6,50.1z"/>
		</defs>
		<clipPath id="SVGID_10_">
			<use xlink:href="#SVGID_9_"  style="overflow:visible;"/>
		</clipPath>
		<path id="XMLID_43_" class="st10" d="M66.5,22.2l-7.9,11c-0.4,0.6-1.4,0.7-1.9,0.1l-6.5-8c-1-1.3-3.1-1.3-4.1,0l-4.2,5.3
			c-0.5,0.7-1.6,0.7-2.2,0.1l-8.7-9c-1.2-1.3-3.3-1.3-4.5,0l-6.9,7.1c-0.6,0.6-1.6,0.6-2.2-0.1l-1.8-2.1c-1.1-1.3-3.2-1.3-4.3,0
			l-1.6,1.9c-0.7,0.6-1,1.5-1,2.3v12c0,4.1,3.5,7.4,7.9,7.4h42.8c4.4,0,7.9-3.3,7.9-7.4V22.4C67.3,22,66.7,21.8,66.5,22.2z"/>
	</g>
	<g>
		<defs>
			<path id="SVGID_11_" d="M48.6,50.1H15.4c-3.7,0-6.7-3-6.7-6.7V12.1c0-3.7,3-6.7,6.7-6.7h33.2c3.7,0,6.7,3,6.7,6.7v31.2
				C55.4,47.1,52.3,50.1,48.6,50.1z"/>
		</defs>
		<clipPath id="SVGID_12_">
			<use xlink:href="#SVGID_11_"  style="overflow:visible;"/>
		</clipPath>
		<g id="XMLID_15_" class="st11">
			<g id="XMLID_35_">
				<path id="XMLID_42_" class="st3" d="M10.7,43.6l2.6,6.5H52l1.2-4.8C53.1,45.3,21.6,46.8,10.7,43.6z"/>
				<polygon id="XMLID_41_" class="st3" points="19.5,46.1 21.9,42.8 45.7,42.8 48,46.2 				"/>
				<path id="XMLID_40_" class="st3" d="M39.9,34.4c-0.8,0-1,3.4-1,3.4h1h1C40.8,37.8,40.7,34.4,39.9,34.4z"/>
				<polygon id="XMLID_39_" class="st3" points="30.4,37.6 33.8,31.4 34.4,31.4 32.1,35.4 32.9,38.3 				"/>
				<path id="XMLID_36_" class="st3" d="M42.3,37.6H30.4l-3.5,5.6L47.2,45L42.3,37.6z M30.1,40.6h11.4l1.7,2.3H28.7L30.1,40.6z"/>
			</g>
			<rect id="XMLID_34_" x="31.2" y="40.2" class="st3" width="0.9" height="3.4"/>
			<rect id="XMLID_33_" x="34" y="40.2" class="st3" width="0.9" height="3.4"/>
			<rect id="XMLID_32_" x="36.8" y="40.2" class="st3" width="0.9" height="3.4"/>
			<rect id="XMLID_16_" x="39.6" y="40.2" class="st3" width="0.9" height="3.4"/>
		</g>
	</g>
	<g>
		<defs>
			<path id="SVGID_13_" d="M48.6,50.1H15.4c-3.7,0-6.7-3-6.7-6.7V12.1c0-3.7,3-6.7,6.7-6.7h33.2c3.7,0,6.7,3,6.7,6.7v31.2
				C55.4,47.1,52.3,50.1,48.6,50.1z"/>
		</defs>
		<clipPath id="SVGID_14_">
			<use xlink:href="#SVGID_13_"  style="overflow:visible;"/>
		</clipPath>
		<g id="XMLID_13_" class="st12">
			<path id="XMLID_14_" class="st5" d="M51.6,51.8c-2.1,0-3.2-0.7-4.2-1.3c-0.8-0.5-1.4-0.9-2.7-0.9S42.8,50,42,50.5
				c-0.9,0.6-2,1.3-4.2,1.3s-3.2-0.7-4.2-1.3c-0.8-0.5-1.4-0.9-2.7-0.9S29,50,28.2,50.5c-0.9,0.6-2,1.3-4.2,1.3s-3.2-0.7-4.2-1.3
				c-0.8-0.5-1.4-0.9-2.7-0.9s-1.9,0.4-2.7,0.9c-0.9,0.6-2,1.3-4.2,1.3c-2.1,0-3.2-0.7-4.2-1.3c-0.8-0.5-1.4-0.9-2.7-0.9v-2.8
				c2.1,0,3.2,0.7,4.2,1.3c0.8,0.5,1.4,0.9,2.7,0.9s1.9-0.4,2.7-0.9c0.9-0.6,2-1.3,4.2-1.3c2.1,0,3.2,0.7,4.2,1.3
				c0.8,0.5,1.4,0.9,2.7,0.9s1.9-0.4,2.7-0.9c0.9-0.6,2-1.3,4.2-1.3s3.2,0.7,4.2,1.3c0.8,0.5,1.4,0.9,2.7,0.9s1.9-0.4,2.7-0.9
				c0.9-0.6,2-1.3,4.2-1.3c2.1,0,3.2,0.7,4.2,1.3c0.8,0.5,1.4,0.9,2.7,0.9s1.9-0.4,2.7-0.9c0.9-0.6,2-1.3,4.2-1.3v2.8
				c-1.3,0-1.9,0.4-2.7,0.9C54.9,51.1,53.8,51.8,51.6,51.8z"/>
		</g>
	</g>
	<g>
		<defs>
			<path id="SVGID_15_" d="M48.6,50.1H15.4c-3.7,0-6.7-3-6.7-6.7V12.1c0-3.7,3-6.7,6.7-6.7h33.2c3.7,0,6.7,3,6.7,6.7v31.2
				C55.4,47.1,52.3,50.1,48.6,50.1z"/>
		</defs>
		<clipPath id="SVGID_16_">
			<use xlink:href="#SVGID_15_"  style="overflow:visible;"/>
		</clipPath>
		<g id="XMLID_9_" class="st13">
			<path id="XMLID_12_" class="st7" d="M51.6,54c-2.1,0-3.2-0.7-4.2-1.3c-0.8-0.5-1.4-0.9-2.7-0.9s-1.9,0.4-2.7,0.9
				c-0.9,0.6-2,1.3-4.2,1.3s-3.2-0.7-4.2-1.3c-0.8-0.5-1.4-0.9-2.7-0.9s-1.9,0.4-2.7,0.9c-0.9,0.6-2,1.3-4.2,1.3s-3.2-0.7-4.2-1.3
				c-0.8-0.5-1.4-0.9-2.7-0.9s-1.9,0.4-2.7,0.9c-0.9,0.6-2,1.3-4.2,1.3C8.1,54,7,53.3,6,52.7c-0.8-0.5-1.4-0.9-2.7-0.9V49
				c2.1,0,3.2,0.7,4.2,1.3c0.8,0.5,1.4,0.9,2.7,0.9s1.9-0.4,2.7-0.9c0.9-0.6,2-1.3,4.2-1.3c2.1,0,3.2,0.7,4.2,1.3
				c0.8,0.5,1.4,0.9,2.7,0.9s1.9-0.4,2.7-0.9c0.9-0.6,2-1.3,4.2-1.3s3.2,0.7,4.2,1.3c0.8,0.5,1.4,0.9,2.7,0.9s1.9-0.4,2.7-0.9
				c0.9-0.6,2-1.3,4.2-1.3c2.1,0,3.2,0.7,4.2,1.3c0.8,0.5,1.4,0.9,2.7,0.9s1.9-0.4,2.7-0.9c0.9-0.6,2-1.3,4.2-1.3v2.8
				c-1.3,0-1.9,0.4-2.7,0.9C54.9,53.3,53.8,54,51.6,54z"/>
		</g>
	</g>
</g>
</svg>
